<svg xmlns="http://www.w3.org/2000/svg" xmlns:xlink="http://www.w3.org/1999/xlink" width="150" zoomAndPan="magnify" viewBox="0 0 112.5 112.499997" height="150" preserveAspectRatio="xMidYMid meet" version="1.0"><defs><clipPath id="6124d3e613"><path d="M 1.96875 3 L 107 3 L 107 108 L 1.96875 108 Z M 1.96875 3 " clip-rule="nonzero"/></clipPath><clipPath id="0381997df2"><path d="M 69 82 L 80 82 L 80 112.003906 L 69 112.003906 Z M 69 82 " clip-rule="nonzero"/></clipPath><clipPath id="5cf7ae0299"><path d="M 31 81 L 38 81 L 38 112.003906 L 31 112.003906 Z M 31 81 " clip-rule="nonzero"/></clipPath><clipPath id="609be37105"><path d="M 3 0 L 110.71875 0 L 110.71875 97 L 3 97 Z M 3 0 " clip-rule="nonzero"/></clipPath></defs><g clip-path="url(#6124d3e613)"><path fill="#c3073f" d="M 106.882812 55.371094 C 106.882812 57.085938 106.796875 58.796875 106.628906 60.503906 C 106.460938 62.210938 106.207031 63.902344 105.875 65.585938 C 105.539062 67.265625 105.121094 68.929688 104.621094 70.570312 C 104.125 72.210938 103.546875 73.824219 102.890625 75.40625 C 102.230469 76.992188 101.5 78.539062 100.6875 80.050781 C 99.878906 81.566406 98.996094 83.035156 98.042969 84.460938 C 97.085938 85.886719 96.066406 87.261719 94.976562 88.585938 C 93.886719 89.910156 92.734375 91.179688 91.519531 92.394531 C 90.304688 93.605469 89.035156 94.757812 87.707031 95.84375 C 86.378906 96.933594 85 97.953125 83.570312 98.90625 C 82.144531 99.859375 80.671875 100.738281 79.15625 101.546875 C 77.640625 102.355469 76.089844 103.085938 74.503906 103.742188 C 72.917969 104.398438 71.300781 104.976562 69.65625 105.476562 C 68.011719 105.972656 66.347656 106.386719 64.664062 106.722656 C 62.980469 107.058594 61.28125 107.308594 59.574219 107.476562 C 57.863281 107.644531 56.148438 107.730469 54.433594 107.730469 C 52.714844 107.730469 51 107.644531 49.292969 107.476562 C 47.582031 107.308594 45.882812 107.058594 44.199219 106.722656 C 42.515625 106.386719 40.851562 105.972656 39.207031 105.476562 C 37.5625 104.976562 35.949219 104.398438 34.359375 103.742188 C 32.773438 103.085938 31.222656 102.355469 29.707031 101.546875 C 28.191406 100.738281 26.722656 99.859375 25.292969 98.90625 C 23.863281 97.953125 22.488281 96.933594 21.160156 95.84375 C 19.832031 94.757812 18.558594 93.605469 17.34375 92.394531 C 16.128906 91.179688 14.976562 89.910156 13.886719 88.585938 C 12.796875 87.261719 11.777344 85.886719 10.820312 84.460938 C 9.867188 83.035156 8.984375 81.566406 8.175781 80.050781 C 7.367188 78.539062 6.632812 76.992188 5.976562 75.40625 C 5.316406 73.824219 4.738281 72.210938 4.242188 70.570312 C 3.742188 68.929688 3.324219 67.265625 2.992188 65.585938 C 2.65625 63.902344 2.402344 62.210938 2.234375 60.503906 C 2.066406 58.796875 1.984375 57.085938 1.984375 55.371094 C 1.984375 53.65625 2.066406 51.945312 2.234375 50.238281 C 2.402344 48.53125 2.65625 46.835938 2.992188 45.15625 C 3.324219 43.472656 3.742188 41.8125 4.242188 40.171875 C 4.738281 38.53125 5.316406 36.917969 5.976562 35.332031 C 6.632812 33.75 7.367188 32.199219 8.175781 30.6875 C 8.984375 29.175781 9.867188 27.707031 10.820312 26.28125 C 11.777344 24.855469 12.796875 23.480469 13.886719 22.152344 C 14.976562 20.828125 16.128906 19.558594 17.34375 18.347656 C 18.558594 17.132812 19.832031 15.984375 21.160156 14.894531 C 22.488281 13.808594 23.863281 12.789062 25.292969 11.835938 C 26.722656 10.882812 28.191406 10.003906 29.707031 9.195312 C 31.222656 8.386719 32.773438 7.652344 34.359375 6.996094 C 35.949219 6.339844 37.5625 5.765625 39.207031 5.265625 C 40.851562 4.769531 42.515625 4.351562 44.199219 4.019531 C 45.882812 3.683594 47.582031 3.433594 49.292969 3.261719 C 51 3.09375 52.714844 3.011719 54.433594 3.011719 C 56.148438 3.011719 57.863281 3.09375 59.574219 3.261719 C 61.28125 3.433594 62.980469 3.683594 64.664062 4.019531 C 66.347656 4.351562 68.011719 4.769531 69.65625 5.265625 C 71.300781 5.765625 72.917969 6.339844 74.503906 6.996094 C 76.089844 7.652344 77.640625 8.386719 79.15625 9.195312 C 80.671875 10.003906 82.144531 10.882812 83.570312 11.835938 C 85 12.789062 86.378906 13.808594 87.707031 14.894531 C 89.035156 15.984375 90.304688 17.132812 91.519531 18.347656 C 92.734375 19.558594 93.886719 20.828125 94.976562 22.152344 C 96.066406 23.480469 97.085938 24.855469 98.042969 26.28125 C 98.996094 27.707031 99.878906 29.175781 100.6875 30.6875 C 101.5 32.199219 102.230469 33.75 102.890625 35.332031 C 103.546875 36.917969 104.125 38.53125 104.621094 40.171875 C 105.121094 41.8125 105.539062 43.472656 105.875 45.15625 C 106.207031 46.835938 106.460938 48.53125 106.628906 50.238281 C 106.796875 51.945312 106.882812 53.65625 106.882812 55.371094 Z M 106.882812 55.371094 " fill-opacity="1" fill-rule="nonzero"/></g><path fill="#ffffff" d="M 4.550781 45.800781 L 19.039062 39.714844 L 28.089844 60.855469 L 23.519531 62.617188 C 23.519531 62.617188 23.191406 66.015625 20.589844 66.96875 C 17.992188 67.921875 16.707031 67.714844 14.765625 66.285156 L 13.394531 66.820312 Z M 4.550781 45.800781 " fill-opacity="1" fill-rule="nonzero"/><path fill="#ffffff" d="M 28.089844 79.851562 C 28.089844 79.851562 30.984375 76.511719 31.492188 73.082031 C 31.492188 73.082031 28.175781 73.351562 28.175781 70.070312 C 28.175781 66.789062 28.175781 41.027344 28.175781 41.027344 C 28.175781 41.027344 28.804688 38.972656 30.117188 39 C 30.117188 39 28.625 38.492188 28.566406 37.6875 C 28.507812 36.882812 26.117188 20.902344 26.117188 20.902344 C 26.117188 20.902344 26.148438 19.261719 28.238281 19.292969 C 30.328125 19.320312 78.714844 19.292969 78.714844 19.292969 C 78.714844 19.292969 80.894531 19.292969 80.65625 21.230469 C 80.417969 23.167969 78.089844 37.867188 78.089844 37.867188 C 78.089844 37.867188 77.3125 38.941406 76.804688 38.941406 C 76.804688 38.941406 78.507812 39.746094 78.507812 41.683594 C 78.507812 43.621094 78.507812 44.425781 78.507812 44.425781 L 82.6875 44.425781 C 82.6875 44.425781 83.851562 44.605469 83.851562 45.949219 C 83.851562 47.289062 82.777344 47.289062 82.777344 47.289062 L 78.535156 47.320312 L 78.535156 70.339844 C 78.535156 70.339844 78.207031 72.007812 77.519531 72.394531 L 80.089844 79.164062 L 71.84375 81.96875 L 69.425781 73.261719 L 40.421875 73.261719 L 36.332031 82.625 C 36.332031 82.625 29.042969 81.789062 28.089844 79.851562 Z M 28.089844 79.851562 " fill-opacity="1" fill-rule="nonzero"/><path fill="#ffffff" d="M 68.230469 95.683594 L 64.917969 92.402344 L 48.191406 75.824219 L 47.113281 75.972656 L 38.542969 84.5 L 38.0625 85.695312 L 39.945312 87.75 L 58.046875 105.730469 L 59.359375 105.730469 L 68.351562 96.816406 Z M 57.507812 103.019531 L 40.929688 86.589844 L 48.964844 78.628906 L 65.453125 94.996094 Z M 57.507812 103.019531 " fill-opacity="1" fill-rule="nonzero"/><path fill="#4e4e50" d="M 69.277344 73.410156 L 40.601562 73.410156 C 40.421875 73.410156 40.273438 73.261719 40.273438 73.082031 C 40.273438 72.902344 40.421875 72.753906 40.601562 72.753906 L 69.277344 72.753906 C 69.457031 72.753906 69.605469 72.902344 69.605469 73.082031 C 69.605469 73.261719 69.457031 73.410156 69.277344 73.410156 Z M 69.277344 73.410156 " fill-opacity="1" fill-rule="nonzero"/><path fill="#4e4e50" d="M 31.492188 73.410156 L 31.015625 73.410156 C 29.28125 73.410156 27.878906 72.007812 27.878906 70.277344 L 27.878906 41.742188 C 27.878906 41.296875 27.96875 40.847656 28.175781 40.433594 C 28.683594 39.328125 29.789062 38.644531 31.015625 38.644531 L 75.726562 38.644531 C 76.921875 38.644531 78.058594 39.359375 78.566406 40.433594 C 78.773438 40.847656 78.863281 41.296875 78.863281 41.742188 L 78.863281 70.277344 C 78.863281 71.234375 78.417969 72.128906 77.671875 72.722656 C 77.519531 72.84375 77.3125 72.8125 77.191406 72.664062 C 77.074219 72.515625 77.101562 72.304688 77.25 72.1875 C 77.847656 71.710938 78.207031 71.023438 78.207031 70.25 L 78.207031 41.742188 C 78.207031 41.386719 78.117188 41.027344 77.96875 40.699219 C 77.550781 39.835938 76.683594 39.269531 75.726562 39.269531 L 31.015625 39.269531 C 30.058594 39.269531 29.191406 39.835938 28.773438 40.699219 C 28.625 41.027344 28.535156 41.386719 28.535156 41.742188 L 28.535156 70.277344 C 28.535156 71.621094 29.640625 72.722656 30.984375 72.722656 L 31.464844 72.722656 C 31.640625 72.722656 31.792969 72.871094 31.792969 73.050781 C 31.820312 73.261719 31.671875 73.410156 31.492188 73.410156 Z M 31.492188 73.410156 " fill-opacity="1" fill-rule="nonzero"/><path fill="#4e4e50" d="M 35.914062 82.382812 C 32.179688 82.382812 28.507812 80.984375 25.726562 78.449219 C 25.578125 78.328125 25.578125 78.121094 25.699219 77.972656 C 25.816406 77.824219 26.027344 77.824219 26.175781 77.941406 C 29.015625 80.507812 32.835938 81.878906 36.691406 81.667969 C 36.808594 81.667969 36.929688 81.667969 37.046875 81.640625 L 37.109375 82.296875 C 36.988281 82.296875 36.871094 82.324219 36.75 82.324219 C 36.453125 82.382812 36.183594 82.382812 35.914062 82.382812 Z M 35.914062 82.382812 " fill-opacity="1" fill-rule="nonzero"/><path fill="#4e4e50" d="M 69.546875 83.070312 C 69.425781 83.070312 69.308594 83.011719 69.246094 82.890625 C 69.15625 82.742188 69.21875 82.535156 69.394531 82.445312 C 73.25 80.476562 77.371094 78.984375 81.613281 78.03125 C 81.640625 78.03125 81.671875 78.03125 81.703125 78.03125 C 81.882812 78.03125 82.03125 78.179688 82.03125 78.359375 C 82.03125 78.507812 81.910156 78.65625 81.761719 78.6875 C 77.550781 79.613281 73.488281 81.074219 69.695312 83.039062 C 69.636719 83.070312 69.605469 83.070312 69.546875 83.070312 Z M 69.546875 83.070312 " fill-opacity="1" fill-rule="nonzero"/><path fill="#4e4e50" d="M 28.417969 80 C 28.355469 80 28.265625 79.96875 28.207031 79.941406 C 28.058594 79.820312 28.027344 79.613281 28.148438 79.460938 C 29.789062 77.40625 30.925781 74.660156 31.582031 71.023438 C 31.851562 69.535156 32.03125 68.011719 32.210938 66.523438 C 32.390625 64.972656 32.597656 63.390625 32.898438 61.839844 C 31.3125 58.261719 31.582031 53.851562 33.554688 50.511719 C 33.734375 50.210938 33.914062 50.003906 34.152344 49.792969 C 34.300781 49.675781 34.511719 49.707031 34.628906 49.855469 C 34.75 50.003906 34.71875 50.210938 34.570312 50.332031 C 34.390625 50.480469 34.269531 50.628906 34.121094 50.867188 C 32.210938 54.027344 32 58.292969 33.523438 61.691406 C 33.554688 61.75 33.554688 61.8125 33.554688 61.898438 C 33.253906 63.480469 33.046875 65.089844 32.867188 66.640625 C 32.6875 68.132812 32.507812 69.683594 32.210938 71.171875 C 31.523438 74.929688 30.359375 77.792969 28.625 79.910156 C 28.597656 79.941406 28.507812 80 28.417969 80 Z M 28.417969 80 " fill-opacity="1" fill-rule="nonzero"/><path fill="#4e4e50" d="M 34.539062 57.160156 C 34.390625 57.160156 34.242188 57.039062 34.210938 56.890625 C 33.972656 55.398438 33.734375 53.910156 33.554688 52.417969 C 33.34375 50.75 34.449219 49.136719 35.40625 47.738281 C 35.613281 47.410156 35.824219 47.109375 36.03125 46.84375 C 36.300781 46.425781 36.601562 46.007812 37.078125 45.769531 C 37.378906 45.621094 37.765625 45.589844 38.09375 45.710938 C 38.363281 45.800781 38.570312 45.976562 38.660156 46.214844 C 38.75 46.394531 38.660156 46.574219 38.511719 46.664062 C 38.363281 46.753906 38.152344 46.664062 38.0625 46.515625 C 38.035156 46.425781 37.914062 46.367188 37.855469 46.335938 C 37.707031 46.277344 37.496094 46.277344 37.347656 46.367188 C 37.019531 46.515625 36.78125 46.84375 36.570312 47.199219 C 36.363281 47.5 36.152344 47.796875 35.945312 48.125 C 34.988281 49.496094 34.003906 50.925781 34.179688 52.328125 C 34.359375 53.820312 34.597656 55.3125 34.839844 56.800781 C 34.867188 56.980469 34.75 57.160156 34.570312 57.1875 C 34.570312 57.160156 34.570312 57.160156 34.539062 57.160156 Z M 34.539062 57.160156 " fill-opacity="1" fill-rule="nonzero"/><path fill="#4e4e50" d="M 39.976562 57.695312 C 39.796875 57.695312 39.675781 57.578125 39.648438 57.398438 L 39.585938 56.949219 C 39.410156 55.042969 39.199219 53.074219 38.902344 51.195312 C 38.902344 51.136719 38.902344 51.078125 38.929688 51.015625 C 39.167969 50.390625 39.46875 49.765625 39.738281 49.167969 C 40.035156 48.484375 40.363281 47.796875 40.632812 47.109375 C 40.753906 46.84375 40.722656 46.515625 40.542969 46.246094 C 40.363281 45.976562 40.035156 45.738281 39.886719 45.800781 C 39.496094 45.949219 39.199219 46.335938 38.929688 46.78125 C 38.152344 47.976562 37.378906 49.316406 36.601562 50.777344 C 36.871094 52.597656 37.019531 54.476562 37.078125 56.324219 C 37.078125 56.503906 36.929688 56.652344 36.75 56.652344 C 36.570312 56.652344 36.421875 56.503906 36.421875 56.324219 C 36.363281 54.476562 36.210938 52.597656 35.945312 50.777344 C 35.945312 50.71875 35.945312 50.628906 35.972656 50.570312 C 36.78125 49.050781 37.585938 47.675781 38.394531 46.425781 C 38.722656 45.917969 39.078125 45.410156 39.675781 45.203125 C 40.214844 44.992188 40.84375 45.410156 41.140625 45.886719 C 41.410156 46.304688 41.46875 46.871094 41.289062 47.347656 C 41.019531 48.035156 40.691406 48.75 40.394531 49.4375 C 40.125 50.003906 39.855469 50.601562 39.617188 51.195312 C 39.914062 53.074219 40.09375 55.011719 40.304688 56.921875 L 40.363281 57.367188 C 40.394531 57.546875 40.246094 57.726562 40.066406 57.726562 C 40.003906 57.695312 39.976562 57.695312 39.976562 57.695312 Z M 39.976562 57.695312 " fill-opacity="1" fill-rule="nonzero"/><path fill="#4e4e50" d="M 36.660156 82.472656 C 36.628906 82.472656 36.570312 82.472656 36.539062 82.445312 C 36.363281 82.382812 36.300781 82.175781 36.363281 82.027344 C 36.691406 81.191406 37.019531 80.328125 37.347656 79.460938 C 38.332031 76.839844 39.347656 74.09375 41.082031 71.859375 C 41.46875 71.351562 41.886719 70.84375 42.304688 70.339844 C 43.859375 68.460938 45.441406 66.523438 46.160156 64.226562 C 46.964844 61.632812 47.890625 58.679688 49.085938 55.9375 C 49.054688 55.90625 49.027344 55.90625 48.964844 55.878906 C 48.875 55.847656 48.757812 55.789062 48.667969 55.726562 C 48.070312 55.964844 47.59375 56.503906 47.175781 57.039062 C 45.828125 58.769531 44.753906 60.527344 44.007812 62.226562 C 43.949219 62.378906 43.800781 62.4375 43.621094 62.40625 C 43.46875 62.378906 43.351562 62.226562 43.351562 62.078125 C 43.378906 61.125 43.203125 60.140625 43.050781 59.1875 C 42.933594 58.441406 42.8125 57.667969 42.753906 56.921875 C 42.664062 55.191406 42.722656 53.253906 42.960938 51.136719 C 42.960938 51.046875 43.023438 50.925781 43.113281 50.898438 C 43.351562 50.777344 43.558594 50.511719 43.679688 50.273438 C 43.050781 49.855469 42.425781 49.554688 41.796875 49.378906 C 41.261719 49.914062 40.691406 50.539062 40.542969 51.195312 C 40.335938 52.089844 40.15625 53.015625 39.976562 53.9375 C 39.945312 54.117188 39.765625 54.238281 39.585938 54.207031 C 39.410156 54.175781 39.289062 54 39.320312 53.820312 C 39.496094 52.894531 39.675781 51.972656 39.886719 51.046875 C 40.09375 50.183594 40.8125 49.4375 41.378906 48.839844 L 41.46875 48.75 C 41.558594 48.660156 41.679688 48.632812 41.796875 48.660156 C 42.605469 48.871094 43.441406 49.257812 44.277344 49.855469 C 44.367188 49.914062 44.425781 50.0625 44.425781 50.183594 C 44.335938 50.660156 43.976562 51.105469 43.648438 51.375 C 43.410156 53.402344 43.351562 55.25 43.441406 56.890625 C 43.46875 57.605469 43.621094 58.351562 43.738281 59.097656 C 43.828125 59.664062 43.917969 60.230469 43.976562 60.796875 C 44.695312 59.425781 45.589844 58.023438 46.667969 56.652344 C 47.175781 55.964844 47.769531 55.3125 48.609375 55.070312 C 48.699219 55.042969 48.785156 55.042969 48.875 55.101562 C 48.964844 55.160156 49.117188 55.222656 49.265625 55.28125 C 49.414062 55.339844 49.5625 55.429688 49.683594 55.488281 C 49.832031 55.578125 49.890625 55.757812 49.832031 55.90625 C 48.578125 58.710938 47.621094 61.75 46.785156 64.40625 C 46.007812 66.851562 44.394531 68.816406 42.8125 70.757812 C 42.425781 71.234375 42.007812 71.738281 41.589844 72.246094 C 39.886719 74.394531 38.902344 77.078125 37.945312 79.671875 C 37.617188 80.507812 37.316406 81.402344 36.960938 82.234375 C 36.898438 82.382812 36.78125 82.472656 36.660156 82.472656 Z M 36.660156 82.472656 " fill-opacity="1" fill-rule="nonzero"/><path fill="#4e4e50" d="M 79.878906 79.132812 C 79.730469 79.132812 79.613281 79.046875 79.582031 78.925781 C 79.28125 78.089844 78.925781 77.226562 78.566406 76.390625 C 77.402344 73.558594 76.207031 70.636719 76.265625 67.625 C 76.265625 67.148438 76.265625 66.640625 76.265625 66.132812 C 76.265625 65.300781 76.234375 64.40625 76.296875 63.570312 C 76.535156 60.679688 76.921875 57.785156 77.460938 54.714844 C 77.164062 54 76.953125 53.28125 76.832031 52.507812 C 76.832031 52.449219 76.804688 52.390625 76.804688 52.328125 C 76.742188 51.941406 76.683594 51.582031 76.503906 51.285156 C 76.207031 50.808594 75.640625 50.570312 74.980469 50.300781 C 74.800781 50.242188 74.714844 50.03125 74.800781 49.882812 C 74.863281 49.707031 75.070312 49.617188 75.21875 49.707031 C 75.816406 49.945312 76.65625 50.242188 77.074219 50.957031 C 77.3125 51.375 77.402344 51.820312 77.460938 52.238281 C 77.460938 52.300781 77.492188 52.359375 77.492188 52.417969 C 77.609375 53.164062 77.820312 53.878906 78.117188 54.566406 C 78.148438 54.625 78.148438 54.683594 78.148438 54.746094 C 77.582031 57.816406 77.191406 60.738281 76.984375 63.628906 C 76.921875 64.464844 76.921875 65.300781 76.953125 66.132812 C 76.953125 66.640625 76.984375 67.148438 76.953125 67.625 C 76.894531 70.515625 78.089844 73.378906 79.222656 76.125 C 79.582031 76.957031 79.941406 77.824219 80.238281 78.6875 C 80.296875 78.867188 80.207031 79.046875 80.03125 79.105469 C 79.96875 79.105469 79.941406 79.132812 79.878906 79.132812 Z M 79.878906 79.132812 " fill-opacity="1" fill-rule="nonzero"/><path fill="#4e4e50" d="M 75.699219 57.667969 C 75.519531 57.667969 75.371094 57.515625 75.371094 57.339844 C 75.28125 55.398438 75.308594 53.492188 75.519531 51.644531 C 74.832031 50.660156 74.234375 49.585938 73.667969 48.484375 C 72.980469 48.214844 72.265625 48.003906 71.546875 47.917969 C 71.367188 47.886719 71.25 47.738281 71.25 47.558594 C 71.277344 47.378906 71.425781 47.261719 71.605469 47.261719 C 72.441406 47.347656 73.25 47.589844 73.996094 47.917969 C 74.054688 47.945312 74.117188 48.003906 74.144531 48.066406 C 74.773438 49.226562 75.371094 50.332031 76.085938 51.375 C 76.148438 51.433594 76.148438 51.523438 76.148438 51.613281 C 75.9375 53.460938 75.878906 55.398438 75.996094 57.339844 C 76.027344 57.488281 75.878906 57.667969 75.699219 57.667969 Z M 75.699219 57.667969 " fill-opacity="1" fill-rule="nonzero"/><path fill="#4e4e50" d="M 73.367188 57.070312 C 73.191406 57.070312 73.039062 56.921875 73.039062 56.742188 C 72.980469 55.667969 72.949219 54.59375 72.890625 53.523438 C 72.832031 52.476562 72.800781 51.464844 72.742188 50.421875 C 71.933594 49.464844 71.367188 48.542969 71.007812 47.589844 L 68.050781 46.992188 C 67.960938 47.261719 67.902344 47.46875 67.871094 47.738281 C 67.871094 47.917969 67.695312 48.066406 67.515625 48.035156 C 67.335938 48.035156 67.1875 47.855469 67.214844 47.675781 C 67.246094 47.320312 67.335938 47.050781 67.425781 46.753906 C 67.453125 46.664062 67.484375 46.574219 67.515625 46.484375 C 67.574219 46.304688 67.722656 46.214844 67.902344 46.246094 L 71.335938 46.933594 C 71.457031 46.960938 71.546875 47.050781 71.578125 47.140625 C 71.90625 48.09375 72.472656 49.050781 73.308594 50.03125 C 73.367188 50.09375 73.398438 50.152344 73.398438 50.242188 C 73.457031 51.316406 73.488281 52.390625 73.546875 53.460938 C 73.609375 54.535156 73.636719 55.609375 73.699219 56.683594 C 73.726562 56.890625 73.578125 57.039062 73.367188 57.070312 C 73.398438 57.070312 73.398438 57.070312 73.367188 57.070312 Z M 73.367188 57.070312 " fill-opacity="1" fill-rule="nonzero"/><path fill="#4e4e50" d="M 70.203125 56.59375 C 69.992188 56.59375 69.875 56.445312 69.875 56.234375 C 69.902344 55.667969 70.023438 55.070312 70.144531 54.503906 C 70.382812 53.433594 70.589844 52.449219 70.171875 51.582031 L 68.828125 48.8125 C 68.378906 48.570312 67.933594 48.394531 67.453125 48.242188 C 67.277344 48.183594 67.1875 48.003906 67.246094 47.828125 C 67.304688 47.648438 67.484375 47.558594 67.664062 47.617188 C 68.203125 47.796875 68.710938 48.035156 69.21875 48.273438 C 69.277344 48.304688 69.335938 48.363281 69.367188 48.421875 L 70.742188 51.285156 C 71.25 52.328125 71.007812 53.492188 70.769531 54.625 C 70.652344 55.160156 70.53125 55.726562 70.5 56.265625 C 70.53125 56.445312 70.382812 56.59375 70.203125 56.59375 Z M 70.203125 56.59375 " fill-opacity="1" fill-rule="nonzero"/><path fill="#4e4e50" d="M 66.140625 61.394531 C 65.929688 61.394531 65.8125 61.214844 65.8125 61.035156 C 65.84375 60.410156 65.929688 59.785156 66.019531 59.15625 C 66.171875 58.054688 66.320312 56.980469 66.199219 55.9375 C 66.050781 54.625 65.632812 53.3125 65.214844 52.03125 C 64.765625 50.660156 64.320312 49.257812 64.167969 47.796875 C 64.109375 47.023438 64.4375 46.277344 65.066406 45.859375 C 65.214844 45.769531 65.394531 45.800781 65.511719 45.917969 C 66.527344 47.171875 67.367188 48.542969 68.082031 50.003906 C 69.007812 51.910156 69.605469 53.9375 70.234375 55.90625 L 70.410156 56.472656 C 70.472656 56.652344 70.351562 56.832031 70.203125 56.890625 C 70.023438 56.949219 69.84375 56.832031 69.785156 56.683594 L 69.605469 56.117188 C 69.007812 54.148438 68.378906 52.148438 67.515625 50.300781 C 66.886719 48.988281 66.140625 47.765625 65.246094 46.605469 C 64.976562 46.902344 64.828125 47.320312 64.855469 47.738281 C 64.976562 49.136719 65.421875 50.511719 65.871094 51.820312 C 66.289062 53.105469 66.738281 54.445312 66.886719 55.847656 C 67.007812 57.011719 66.859375 58.144531 66.707031 59.246094 C 66.617188 59.84375 66.527344 60.46875 66.5 61.066406 C 66.46875 61.246094 66.320312 61.394531 66.140625 61.394531 Z M 66.140625 61.394531 " fill-opacity="1" fill-rule="nonzero"/><path fill="#4e4e50" d="M 71.785156 82.027344 C 71.636719 82.027344 71.488281 81.90625 71.457031 81.757812 C 70.890625 79.132812 70.144531 76.511719 69.277344 73.976562 C 68.828125 72.664062 68.082031 71.5 67.277344 70.277344 C 66.679688 69.382812 66.082031 68.460938 65.601562 67.476562 C 64.230469 64.582031 62.765625 61.183594 62.734375 57.636719 C 62.707031 55.878906 62.644531 54.296875 62.46875 52.65625 C 62.46875 52.566406 62.496094 52.449219 62.554688 52.390625 C 62.617188 52.328125 62.734375 52.300781 62.824219 52.300781 C 63.691406 52.417969 64.496094 52.867188 65.035156 53.550781 C 65.574219 54.238281 65.84375 55.101562 65.78125 55.964844 C 65.722656 56.652344 65.992188 57.429688 66.261719 58.144531 C 66.378906 58.472656 66.5 58.800781 66.589844 59.128906 C 66.648438 59.304688 66.527344 59.484375 66.351562 59.542969 C 66.171875 59.605469 65.992188 59.484375 65.929688 59.304688 C 65.84375 59.007812 65.722656 58.679688 65.632812 58.351562 C 65.335938 57.546875 65.066406 56.742188 65.125 55.90625 C 65.183594 55.222656 64.945312 54.503906 64.527344 53.96875 C 64.167969 53.523438 63.691406 53.222656 63.152344 53.042969 C 63.273438 54.566406 63.363281 56.027344 63.363281 57.636719 C 63.394531 61.035156 64.828125 64.34375 66.171875 67.179688 C 66.617188 68.132812 67.214844 69.027344 67.785156 69.890625 C 68.558594 71.085938 69.394531 72.335938 69.875 73.738281 C 70.742188 76.300781 71.488281 78.957031 72.054688 81.578125 C 72.085938 81.757812 71.996094 81.9375 71.816406 81.96875 C 71.84375 82.027344 71.816406 82.027344 71.785156 82.027344 Z M 71.785156 82.027344 " fill-opacity="1" fill-rule="nonzero"/><path fill="#4e4e50" d="M 76.476562 39.300781 L 30.269531 39.300781 C 29.28125 39.300781 28.445312 38.582031 28.296875 37.597656 L 25.816406 21.289062 C 25.726562 20.722656 25.90625 20.125 26.265625 19.679688 C 26.65625 19.230469 27.191406 18.992188 27.789062 18.992188 L 78.925781 18.992188 C 79.523438 18.992188 80.058594 19.261719 80.449219 19.679688 C 80.835938 20.125 80.984375 20.691406 80.894531 21.289062 L 78.417969 37.597656 C 78.296875 38.582031 77.460938 39.300781 76.476562 39.300781 Z M 27.789062 19.648438 C 27.402344 19.648438 27.042969 19.828125 26.773438 20.125 C 26.503906 20.425781 26.414062 20.8125 26.476562 21.199219 L 28.953125 37.511719 C 29.042969 38.164062 29.613281 38.644531 30.269531 38.644531 L 76.476562 38.644531 C 77.132812 38.644531 77.699219 38.164062 77.789062 37.511719 L 80.269531 21.199219 C 80.328125 20.8125 80.207031 20.425781 79.96875 20.125 C 79.699219 19.828125 79.34375 19.648438 78.953125 19.648438 Z M 27.789062 19.648438 " fill-opacity="1" fill-rule="nonzero"/><path fill="#4e4e50" d="M 76.59375 38.226562 L 30.148438 38.226562 C 30 38.226562 29.851562 38.105469 29.820312 37.957031 L 27.011719 20.453125 C 26.984375 20.363281 27.011719 20.277344 27.101562 20.1875 C 27.160156 20.125 27.25 20.066406 27.339844 20.066406 L 79.402344 20.066406 C 79.492188 20.066406 79.582031 20.097656 79.640625 20.1875 C 79.699219 20.246094 79.730469 20.363281 79.730469 20.453125 L 76.921875 37.957031 C 76.894531 38.105469 76.742188 38.226562 76.59375 38.226562 Z M 30.417969 37.570312 L 76.296875 37.570312 L 79.015625 20.722656 L 27.730469 20.722656 Z M 30.417969 37.570312 " fill-opacity="1" fill-rule="nonzero"/><path fill="#4e4e50" d="M 34.539062 38.226562 C 34.359375 38.226562 34.242188 38.105469 34.210938 37.925781 L 32.449219 22.511719 C 32.449219 22.421875 32.480469 22.332031 32.539062 22.242188 C 32.597656 22.183594 32.6875 22.125 32.777344 22.125 L 54.699219 22.125 C 54.789062 22.125 54.878906 22.152344 54.941406 22.242188 C 55 22.304688 55.03125 22.394531 55.03125 22.480469 L 54.015625 37.898438 C 54.015625 38.078125 53.835938 38.226562 53.65625 38.195312 C 53.476562 38.195312 53.328125 38.015625 53.355469 37.839844 L 54.34375 22.78125 L 33.164062 22.78125 L 34.898438 37.839844 C 34.929688 38.015625 34.777344 38.195312 34.597656 38.195312 C 34.570312 38.226562 34.570312 38.226562 34.539062 38.226562 Z M 34.539062 38.226562 " fill-opacity="1" fill-rule="nonzero"/><path fill="#4e4e50" d="M 74.890625 38.226562 C 74.863281 38.226562 74.863281 38.226562 74.832031 38.226562 C 74.652344 38.195312 74.535156 38.015625 74.5625 37.839844 L 76.085938 27.371094 L 63.929688 27.371094 L 63.003906 37.925781 C 62.972656 38.105469 62.824219 38.253906 62.644531 38.226562 C 62.46875 38.195312 62.316406 38.046875 62.347656 37.867188 L 63.304688 27.015625 C 63.304688 26.835938 63.453125 26.714844 63.632812 26.714844 L 76.476562 26.714844 C 76.566406 26.714844 76.65625 26.746094 76.714844 26.835938 C 76.773438 26.894531 76.804688 27.015625 76.804688 27.105469 L 75.222656 37.957031 C 75.191406 38.105469 75.042969 38.226562 74.890625 38.226562 Z M 74.890625 38.226562 " fill-opacity="1" fill-rule="nonzero"/><path fill="#4e4e50" d="M 62.972656 35.09375 L 57.089844 35.09375 C 57 35.09375 56.910156 35.066406 56.851562 34.976562 C 56.792969 34.914062 56.761719 34.828125 56.761719 34.738281 L 57.777344 23.078125 C 57.777344 22.898438 57.925781 22.78125 58.105469 22.78125 L 70.949219 22.78125 C 71.039062 22.78125 71.128906 22.808594 71.1875 22.898438 C 71.25 22.960938 71.277344 23.078125 71.277344 23.167969 L 70.710938 27.132812 C 70.679688 27.3125 70.5 27.433594 70.320312 27.402344 C 70.144531 27.371094 70.023438 27.191406 70.054688 27.015625 L 70.5625 23.4375 L 58.40625 23.4375 L 57.449219 34.4375 L 62.972656 34.4375 C 63.152344 34.4375 63.304688 34.585938 63.304688 34.765625 C 63.304688 34.945312 63.152344 35.09375 62.972656 35.09375 Z M 62.972656 35.09375 " fill-opacity="1" fill-rule="nonzero"/><path fill="#4e4e50" d="M 82.539062 47.617188 L 78.535156 47.617188 C 78.355469 47.617188 78.207031 47.46875 78.207031 47.289062 L 78.207031 44.457031 C 78.207031 44.277344 78.355469 44.128906 78.535156 44.128906 L 82.539062 44.128906 C 83.433594 44.128906 84.179688 44.875 84.179688 45.769531 L 84.179688 45.976562 C 84.179688 46.902344 83.433594 47.617188 82.539062 47.617188 Z M 78.835938 46.960938 L 82.507812 46.960938 C 83.046875 46.960938 83.496094 46.515625 83.496094 45.976562 L 83.496094 45.769531 C 83.496094 45.234375 83.046875 44.785156 82.507812 44.785156 L 78.835938 44.785156 Z M 78.835938 46.960938 " fill-opacity="1" fill-rule="nonzero"/><path fill="#4e4e50" d="M 18.320312 67.921875 C 15.304688 67.921875 12.855469 65.476562 12.855469 62.46875 C 12.855469 59.457031 15.304688 57.011719 18.320312 57.011719 C 21.335938 57.011719 23.785156 59.484375 23.785156 62.46875 C 23.785156 65.476562 21.335938 67.921875 18.320312 67.921875 Z M 18.320312 57.695312 C 15.664062 57.695312 13.511719 59.84375 13.511719 62.496094 C 13.511719 65.152344 15.664062 67.296875 18.320312 67.296875 C 20.980469 67.296875 23.128906 65.152344 23.128906 62.496094 C 23.128906 59.84375 20.949219 57.695312 18.320312 57.695312 Z M 18.320312 57.695312 " fill-opacity="1" fill-rule="nonzero"/><path fill="#4e4e50" d="M 21.875 62.46875 C 21.875 62.9375 21.785156 63.390625 21.605469 63.824219 C 21.425781 64.257812 21.167969 64.644531 20.835938 64.976562 C 20.5 65.308594 20.117188 65.566406 19.679688 65.746094 C 19.246094 65.925781 18.792969 66.015625 18.320312 66.015625 C 17.851562 66.015625 17.394531 65.925781 16.960938 65.746094 C 16.523438 65.566406 16.140625 65.308594 15.808594 64.976562 C 15.472656 64.644531 15.21875 64.257812 15.039062 63.824219 C 14.855469 63.390625 14.765625 62.9375 14.765625 62.46875 C 14.765625 61.996094 14.855469 61.542969 15.039062 61.109375 C 15.21875 60.675781 15.472656 60.289062 15.808594 59.957031 C 16.140625 59.625 16.523438 59.367188 16.960938 59.1875 C 17.394531 59.007812 17.851562 58.917969 18.320312 58.917969 C 18.792969 58.917969 19.246094 59.007812 19.679688 59.1875 C 20.117188 59.367188 20.5 59.625 20.835938 59.957031 C 21.167969 60.289062 21.425781 60.675781 21.605469 61.109375 C 21.785156 61.542969 21.875 61.996094 21.875 62.46875 Z M 21.875 62.46875 " fill-opacity="1" fill-rule="nonzero"/><path fill="#4e4e50" d="M 18.320312 66.34375 C 16.171875 66.34375 14.4375 64.613281 14.4375 62.46875 C 14.4375 60.320312 16.171875 58.589844 18.320312 58.589844 C 20.472656 58.589844 22.203125 60.320312 22.203125 62.46875 C 22.203125 64.613281 20.472656 66.34375 18.320312 66.34375 Z M 18.320312 59.277344 C 16.558594 59.277344 15.09375 60.707031 15.09375 62.496094 C 15.09375 64.257812 16.527344 65.71875 18.320312 65.71875 C 20.082031 65.71875 21.546875 64.285156 21.546875 62.496094 C 21.546875 60.707031 20.082031 59.277344 18.320312 59.277344 Z M 18.320312 59.277344 " fill-opacity="1" fill-rule="nonzero"/><path fill="#4e4e50" d="M 13.480469 67.238281 C 13.363281 67.238281 13.242188 67.148438 13.183594 67.027344 L 4.222656 45.976562 C 4.164062 45.800781 4.222656 45.621094 4.402344 45.53125 L 19.726562 39.058594 C 19.902344 39 20.082031 39.058594 20.171875 39.238281 L 20.679688 40.433594 L 28.535156 58.949219 C 28.597656 59.128906 28.535156 59.304688 28.355469 59.394531 C 28.175781 59.457031 28 59.394531 27.910156 59.21875 L 19.664062 39.804688 L 4.96875 46.007812 L 13.660156 66.460938 L 14.765625 65.984375 C 14.945312 65.925781 15.125 65.984375 15.214844 66.164062 C 15.273438 66.34375 15.214844 66.523438 15.035156 66.613281 L 13.601562 67.207031 C 13.570312 67.238281 13.511719 67.238281 13.480469 67.238281 Z M 13.480469 67.238281 " fill-opacity="1" fill-rule="nonzero"/><path fill="#4e4e50" d="M 23.429688 63.035156 C 23.25 63.035156 23.101562 62.882812 23.101562 62.707031 C 23.101562 62.554688 23.191406 62.4375 23.308594 62.40625 L 28.058594 60.410156 C 28.238281 60.351562 28.417969 60.410156 28.507812 60.589844 C 28.566406 60.765625 28.507812 60.945312 28.328125 61.035156 L 23.578125 63.0625 C 23.519531 63.003906 23.488281 63.035156 23.429688 63.035156 Z M 23.429688 63.035156 " fill-opacity="1" fill-rule="nonzero"/><path fill="#4e4e50" d="M 16.617188 65.925781 C 16.4375 65.925781 16.289062 65.777344 16.289062 65.597656 C 16.289062 65.417969 16.4375 65.269531 16.617188 65.269531 C 16.796875 65.269531 16.945312 65.417969 16.945312 65.597656 C 16.945312 65.777344 16.796875 65.925781 16.617188 65.925781 Z M 16.617188 65.925781 " fill-opacity="1" fill-rule="nonzero"/><path fill="#4e4e50" d="M 9.71875 49.109375 C 9.597656 49.109375 9.480469 49.019531 9.421875 48.898438 C 9.359375 48.722656 9.421875 48.542969 9.597656 48.453125 L 19.457031 44.277344 C 19.636719 44.21875 19.8125 44.277344 19.902344 44.457031 C 19.964844 44.636719 19.902344 44.816406 19.726562 44.90625 L 9.867188 49.078125 C 9.808594 49.078125 9.75 49.109375 9.71875 49.109375 Z M 9.71875 49.109375 " fill-opacity="1" fill-rule="nonzero"/><path fill="#4e4e50" d="M 9.359375 52.6875 C 9.242188 52.6875 9.121094 52.597656 9.0625 52.476562 C 9.003906 52.300781 9.0625 52.121094 9.242188 52.03125 L 20.710938 47.199219 C 20.890625 47.140625 21.070312 47.199219 21.160156 47.378906 C 21.21875 47.558594 21.160156 47.738281 20.980469 47.828125 L 9.507812 52.65625 C 9.449219 52.65625 9.390625 52.6875 9.359375 52.6875 Z M 9.359375 52.6875 " fill-opacity="1" fill-rule="nonzero"/><path fill="#4e4e50" d="M 10.585938 55.578125 C 10.464844 55.578125 10.347656 55.488281 10.285156 55.371094 C 10.226562 55.191406 10.285156 55.011719 10.464844 54.921875 L 21.90625 50.09375 C 22.085938 50.03125 22.261719 50.09375 22.351562 50.273438 C 22.414062 50.449219 22.351562 50.628906 22.175781 50.71875 L 10.703125 55.550781 C 10.675781 55.578125 10.613281 55.578125 10.585938 55.578125 Z M 10.585938 55.578125 " fill-opacity="1" fill-rule="nonzero"/><path fill="#4e4e50" d="M 12.378906 111.695312 C 12.199219 111.695312 12.046875 111.546875 12.046875 111.367188 C 11.929688 105.074219 12.855469 100.394531 14.945312 96.695312 L 25.609375 77.941406 C 25.699219 77.792969 25.90625 77.734375 26.058594 77.824219 C 26.207031 77.914062 26.265625 78.121094 26.175781 78.269531 L 15.511719 97.023438 C 13.453125 100.632812 12.554688 105.195312 12.675781 111.367188 C 12.707031 111.515625 12.554688 111.664062 12.378906 111.695312 Z M 12.378906 111.695312 " fill-opacity="1" fill-rule="nonzero"/><path fill="#4e4e50" d="M 94.816406 107.996094 C 94.695312 107.996094 94.574219 107.9375 94.515625 107.820312 L 88.394531 95.414062 C 85.464844 89.511719 82.925781 84.144531 81.375 78.480469 C 81.3125 78.300781 81.433594 78.121094 81.613281 78.0625 C 81.792969 78 81.972656 78.121094 82.03125 78.300781 C 83.554688 83.90625 86.09375 89.242188 88.988281 95.117188 L 95.113281 107.519531 C 95.203125 107.667969 95.113281 107.878906 94.964844 107.96875 C 94.933594 107.96875 94.875 107.996094 94.816406 107.996094 Z M 94.816406 107.996094 " fill-opacity="1" fill-rule="nonzero"/><g clip-path="url(#0381997df2)"><path fill="#4e4e50" d="M 78.863281 112.5 C 78.714844 112.5 78.566406 112.378906 78.535156 112.230469 C 76.414062 102.78125 72.949219 91.808594 69.246094 82.890625 C 69.1875 82.710938 69.246094 82.535156 69.425781 82.472656 C 69.605469 82.414062 69.785156 82.472656 69.84375 82.652344 C 73.578125 91.628906 77.042969 102.628906 79.164062 112.113281 C 79.191406 112.292969 79.105469 112.46875 78.925781 112.5 C 78.894531 112.5 78.894531 112.5 78.863281 112.5 Z M 78.863281 112.5 " fill-opacity="1" fill-rule="nonzero"/></g><g clip-path="url(#5cf7ae0299)"><path fill="#4e4e50" d="M 31.882812 112.5 C 31.730469 112.5 31.582031 112.378906 31.554688 112.203125 C 30.925781 107.492188 31.253906 102.363281 32.480469 96.546875 C 33.582031 91.417969 35.257812 86.378906 36.75 81.90625 C 36.808594 81.730469 36.988281 81.640625 37.167969 81.699219 C 37.347656 81.757812 37.4375 81.9375 37.378906 82.117188 C 35.882812 86.558594 34.210938 91.597656 33.136719 96.667969 C 31.910156 102.390625 31.613281 107.429688 32.210938 112.082031 C 32.238281 112.261719 32.121094 112.441406 31.910156 112.441406 C 31.910156 112.5 31.882812 112.5 31.882812 112.5 Z M 31.882812 112.5 " fill-opacity="1" fill-rule="nonzero"/></g><path fill="#4e4e50" d="M 72.800781 44.011719 L 33.851562 44.011719 C 33.671875 44.011719 33.523438 43.859375 33.523438 43.683594 L 33.523438 42.429688 C 33.523438 42.25 33.671875 42.101562 33.851562 42.101562 L 72.800781 42.101562 C 72.980469 42.101562 73.128906 42.25 73.128906 42.429688 L 73.128906 43.683594 C 73.128906 43.859375 72.980469 44.011719 72.800781 44.011719 Z M 34.179688 43.355469 L 72.472656 43.355469 L 72.472656 42.789062 L 34.179688 42.789062 Z M 34.179688 43.355469 " fill-opacity="1" fill-rule="nonzero"/><path fill="#4e4e50" d="M 36.0625 47.4375 L 34.152344 47.4375 C 33.824219 47.4375 33.554688 47.171875 33.554688 46.84375 L 33.554688 45.082031 C 33.554688 44.753906 33.824219 44.488281 34.152344 44.488281 L 36.0625 44.488281 C 36.390625 44.488281 36.660156 44.753906 36.660156 45.082031 L 36.660156 46.84375 C 36.660156 47.171875 36.390625 47.4375 36.0625 47.4375 Z M 34.179688 46.78125 L 35.972656 46.78125 L 35.972656 45.144531 L 34.179688 45.144531 Z M 34.179688 46.78125 " fill-opacity="1" fill-rule="nonzero"/><path fill="#4e4e50" d="M 37.617188 46.277344 C 37.4375 46.277344 37.289062 46.128906 37.289062 45.949219 L 37.289062 45.082031 C 37.289062 44.753906 37.554688 44.488281 37.886719 44.488281 L 39.796875 44.488281 C 40.125 44.488281 40.394531 44.753906 40.394531 45.082031 L 40.394531 45.441406 C 40.394531 45.621094 40.246094 45.769531 40.066406 45.769531 C 39.886719 45.769531 39.738281 45.621094 39.738281 45.441406 L 39.738281 45.113281 L 37.945312 45.113281 L 37.945312 45.949219 C 37.945312 46.128906 37.796875 46.277344 37.617188 46.277344 Z M 37.617188 46.277344 " fill-opacity="1" fill-rule="nonzero"/><path fill="#4e4e50" d="M 43.589844 47.4375 L 41.679688 47.4375 C 41.351562 47.4375 41.082031 47.171875 41.082031 46.84375 L 41.082031 45.082031 C 41.082031 44.753906 41.351562 44.488281 41.679688 44.488281 L 43.589844 44.488281 C 43.917969 44.488281 44.1875 44.753906 44.1875 45.082031 L 44.1875 46.84375 C 44.1875 47.171875 43.917969 47.4375 43.589844 47.4375 Z M 41.738281 46.78125 L 43.53125 46.78125 L 43.53125 45.144531 L 41.738281 45.144531 Z M 41.738281 46.78125 " fill-opacity="1" fill-rule="nonzero"/><path fill="#4e4e50" d="M 47.351562 47.4375 L 45.441406 47.4375 C 45.113281 47.4375 44.84375 47.171875 44.84375 46.84375 L 44.84375 45.082031 C 44.84375 44.753906 45.113281 44.488281 45.441406 44.488281 L 47.351562 44.488281 C 47.683594 44.488281 47.949219 44.753906 47.949219 45.082031 L 47.949219 46.84375 C 47.949219 47.171875 47.683594 47.4375 47.351562 47.4375 Z M 45.5 46.78125 L 47.292969 46.78125 L 47.292969 45.144531 L 45.5 45.144531 Z M 45.5 46.78125 " fill-opacity="1" fill-rule="nonzero"/><path fill="#4e4e50" d="M 51.117188 47.4375 L 49.207031 47.4375 C 48.875 47.4375 48.609375 47.171875 48.609375 46.84375 L 48.609375 45.082031 C 48.609375 44.753906 48.875 44.488281 49.207031 44.488281 L 51.117188 44.488281 C 51.445312 44.488281 51.714844 44.753906 51.714844 45.082031 L 51.714844 46.84375 C 51.714844 47.171875 51.445312 47.4375 51.117188 47.4375 Z M 49.265625 46.78125 L 51.058594 46.78125 L 51.058594 45.144531 L 49.265625 45.144531 Z M 49.265625 46.78125 " fill-opacity="1" fill-rule="nonzero"/><path fill="#4e4e50" d="M 54.878906 47.4375 L 52.96875 47.4375 C 52.640625 47.4375 52.371094 47.171875 52.371094 46.84375 L 52.371094 45.082031 C 52.371094 44.753906 52.640625 44.488281 52.96875 44.488281 L 54.878906 44.488281 C 55.207031 44.488281 55.476562 44.753906 55.476562 45.082031 L 55.476562 46.84375 C 55.476562 47.171875 55.207031 47.4375 54.878906 47.4375 Z M 53.027344 46.78125 L 54.820312 46.78125 L 54.820312 45.144531 L 53.027344 45.144531 Z M 53.027344 46.78125 " fill-opacity="1" fill-rule="nonzero"/><path fill="#4e4e50" d="M 58.644531 47.4375 L 56.730469 47.4375 C 56.402344 47.4375 56.132812 47.171875 56.132812 46.84375 L 56.132812 45.082031 C 56.132812 44.753906 56.402344 44.488281 56.730469 44.488281 L 58.644531 44.488281 C 58.972656 44.488281 59.242188 44.753906 59.242188 45.082031 L 59.242188 46.84375 C 59.269531 47.171875 58.972656 47.4375 58.644531 47.4375 Z M 56.792969 46.78125 L 58.582031 46.78125 L 58.582031 45.144531 L 56.792969 45.144531 Z M 56.792969 46.78125 " fill-opacity="1" fill-rule="nonzero"/><path fill="#4e4e50" d="M 62.40625 47.4375 L 60.496094 47.4375 C 60.167969 47.4375 59.898438 47.171875 59.898438 46.84375 L 59.898438 45.082031 C 59.898438 44.753906 60.167969 44.488281 60.496094 44.488281 L 62.40625 44.488281 C 62.734375 44.488281 63.003906 44.753906 63.003906 45.082031 L 63.003906 46.84375 C 63.035156 47.171875 62.765625 47.4375 62.40625 47.4375 Z M 60.554688 46.78125 L 62.347656 46.78125 L 62.347656 45.144531 L 60.554688 45.144531 Z M 60.554688 46.78125 " fill-opacity="1" fill-rule="nonzero"/><path fill="#4e4e50" d="M 66.171875 47.4375 L 65.992188 47.4375 C 65.8125 47.4375 65.664062 47.289062 65.664062 47.109375 C 65.664062 46.933594 65.8125 46.78125 65.992188 46.78125 L 66.109375 46.78125 L 66.109375 45.144531 L 64.320312 45.144531 L 64.320312 46.78125 L 64.558594 46.78125 C 64.738281 46.78125 64.886719 46.933594 64.886719 47.109375 C 64.886719 47.289062 64.738281 47.4375 64.558594 47.4375 L 64.257812 47.4375 C 63.929688 47.4375 63.660156 47.171875 63.660156 46.84375 L 63.660156 45.082031 C 63.660156 44.753906 63.929688 44.488281 64.257812 44.488281 L 66.171875 44.488281 C 66.5 44.488281 66.769531 44.753906 66.769531 45.082031 L 66.769531 46.84375 C 66.796875 47.171875 66.527344 47.4375 66.171875 47.4375 Z M 66.171875 47.4375 " fill-opacity="1" fill-rule="nonzero"/><path fill="#4e4e50" d="M 40.601562 50.71875 L 40.035156 50.71875 C 39.707031 50.71875 39.4375 50.449219 39.4375 50.121094 L 39.4375 49.945312 C 39.4375 49.765625 39.585938 49.617188 39.765625 49.617188 C 39.945312 49.617188 40.09375 49.765625 40.09375 49.945312 L 40.09375 50.09375 L 40.632812 50.09375 C 40.8125 50.09375 40.960938 50.242188 40.960938 50.421875 C 40.929688 50.570312 40.78125 50.71875 40.601562 50.71875 Z M 40.601562 50.71875 " fill-opacity="1" fill-rule="nonzero"/><path fill="#4e4e50" d="M 42.214844 49.496094 C 42.035156 49.496094 41.886719 49.347656 41.886719 49.167969 L 41.886719 48.421875 L 40.574219 48.421875 C 40.394531 48.421875 40.246094 48.273438 40.246094 48.09375 C 40.246094 47.917969 40.394531 47.765625 40.574219 47.765625 L 41.945312 47.765625 C 42.277344 47.765625 42.542969 48.035156 42.542969 48.363281 L 42.542969 49.167969 C 42.542969 49.347656 42.394531 49.496094 42.214844 49.496094 Z M 41.945312 48.421875 Z M 41.945312 48.421875 " fill-opacity="1" fill-rule="nonzero"/><path fill="#4e4e50" d="M 45.710938 50.71875 L 44.066406 50.71875 C 43.886719 50.71875 43.738281 50.570312 43.738281 50.390625 C 43.738281 50.210938 43.886719 50.0625 44.066406 50.0625 L 45.652344 50.0625 L 45.652344 48.421875 L 43.859375 48.421875 L 43.859375 49.765625 C 43.859375 49.945312 43.710938 50.09375 43.53125 50.09375 C 43.351562 50.09375 43.203125 49.945312 43.203125 49.765625 L 43.203125 48.363281 C 43.203125 48.035156 43.46875 47.765625 43.800781 47.765625 L 45.710938 47.765625 C 46.039062 47.765625 46.308594 48.035156 46.308594 48.363281 L 46.308594 50.121094 C 46.308594 50.449219 46.039062 50.71875 45.710938 50.71875 Z M 45.710938 50.71875 " fill-opacity="1" fill-rule="nonzero"/><path fill="#4e4e50" d="M 49.472656 50.71875 L 47.5625 50.71875 C 47.234375 50.71875 46.964844 50.449219 46.964844 50.121094 L 46.964844 48.363281 C 46.964844 48.035156 47.234375 47.765625 47.5625 47.765625 L 49.472656 47.765625 C 49.800781 47.765625 50.070312 48.035156 50.070312 48.363281 L 50.070312 50.121094 C 50.070312 50.449219 49.800781 50.71875 49.472656 50.71875 Z M 47.621094 50.0625 L 49.414062 50.0625 L 49.414062 48.421875 L 47.621094 48.421875 Z M 47.621094 50.0625 " fill-opacity="1" fill-rule="nonzero"/><path fill="#4e4e50" d="M 53.238281 50.71875 L 51.324219 50.71875 C 50.996094 50.71875 50.726562 50.449219 50.726562 50.121094 L 50.726562 48.363281 C 50.726562 48.035156 50.996094 47.765625 51.324219 47.765625 L 53.238281 47.765625 C 53.566406 47.765625 53.835938 48.035156 53.835938 48.363281 L 53.835938 50.121094 C 53.863281 50.449219 53.566406 50.71875 53.238281 50.71875 Z M 51.386719 50.0625 L 53.175781 50.0625 L 53.175781 48.421875 L 51.386719 48.421875 Z M 51.386719 50.0625 " fill-opacity="1" fill-rule="nonzero"/><path fill="#4e4e50" d="M 57 50.71875 L 55.089844 50.71875 C 54.761719 50.71875 54.492188 50.449219 54.492188 50.121094 L 54.492188 48.363281 C 54.492188 48.035156 54.761719 47.765625 55.089844 47.765625 L 57 47.765625 C 57.328125 47.765625 57.597656 48.035156 57.597656 48.363281 L 57.597656 50.121094 C 57.628906 50.449219 57.359375 50.71875 57 50.71875 Z M 55.148438 50.0625 L 56.941406 50.0625 L 56.941406 48.421875 L 55.148438 48.421875 Z M 55.148438 50.0625 " fill-opacity="1" fill-rule="nonzero"/><path fill="#4e4e50" d="M 60.765625 50.71875 L 58.851562 50.71875 C 58.523438 50.71875 58.253906 50.449219 58.253906 50.121094 L 58.253906 48.363281 C 58.253906 48.035156 58.523438 47.765625 58.851562 47.765625 L 60.765625 47.765625 C 61.09375 47.765625 61.363281 48.035156 61.363281 48.363281 L 61.363281 50.121094 C 61.390625 50.449219 61.121094 50.71875 60.765625 50.71875 Z M 58.914062 50.0625 L 60.703125 50.0625 L 60.703125 48.421875 L 58.914062 48.421875 Z M 58.914062 50.0625 " fill-opacity="1" fill-rule="nonzero"/><path fill="#4e4e50" d="M 64.558594 50.71875 L 62.617188 50.71875 C 62.289062 50.71875 62.019531 50.449219 62.019531 50.121094 L 62.019531 48.363281 C 62.019531 48.035156 62.289062 47.765625 62.617188 47.765625 L 64.527344 47.765625 C 64.707031 47.765625 64.855469 47.917969 64.855469 48.09375 C 64.855469 48.273438 64.707031 48.421875 64.527344 48.421875 L 62.675781 48.421875 L 62.675781 50.0625 L 64.46875 50.0625 L 64.46875 49.527344 C 64.46875 49.347656 64.617188 49.199219 64.796875 49.199219 C 64.976562 49.199219 65.125 49.347656 65.125 49.527344 L 65.125 50.121094 C 65.15625 50.449219 64.886719 50.71875 64.558594 50.71875 Z M 64.558594 50.71875 " fill-opacity="1" fill-rule="nonzero"/><path fill="#4e4e50" d="M 67.992188 48.421875 L 66.648438 48.421875 C 66.46875 48.421875 66.320312 48.273438 66.320312 48.09375 C 66.320312 47.917969 66.46875 47.765625 66.648438 47.765625 L 67.992188 47.765625 C 68.171875 47.765625 68.320312 47.917969 68.320312 48.09375 C 68.320312 48.273438 68.171875 48.421875 67.992188 48.421875 Z M 67.992188 48.421875 " fill-opacity="1" fill-rule="nonzero"/><path fill="#4e4e50" d="M 68.320312 50.71875 L 67.902344 50.71875 C 67.722656 50.71875 67.574219 50.570312 67.574219 50.390625 C 67.574219 50.210938 67.722656 50.0625 67.902344 50.0625 L 68.261719 50.0625 L 68.261719 48.363281 C 68.261719 48.363281 68.261719 48.332031 68.261719 48.332031 C 68.261719 48.15625 68.410156 48.003906 68.589844 48.003906 C 68.769531 48.003906 68.917969 48.15625 68.917969 48.304688 C 68.917969 48.332031 68.917969 48.332031 68.917969 48.363281 L 68.917969 50.121094 C 68.917969 50.449219 68.648438 50.71875 68.320312 50.71875 Z M 68.261719 48.363281 Z M 68.261719 48.363281 " fill-opacity="1" fill-rule="nonzero"/><path fill="#4e4e50" d="M 39.765625 54 L 39.585938 54 C 39.410156 54 39.257812 53.851562 39.257812 53.671875 C 39.257812 53.492188 39.410156 53.34375 39.585938 53.34375 L 39.765625 53.34375 C 39.945312 53.34375 40.09375 53.492188 40.09375 53.671875 C 40.09375 53.851562 39.945312 54 39.765625 54 Z M 39.765625 54 " fill-opacity="1" fill-rule="nonzero"/><path fill="#4e4e50" d="M 40.214844 51.820312 C 40.125 51.820312 40.003906 51.792969 39.945312 51.703125 L 39.289062 51.703125 C 39.109375 51.703125 38.960938 51.554688 38.960938 51.375 C 38.960938 51.195312 39.109375 51.046875 39.289062 51.046875 L 39.976562 51.046875 C 40.183594 51.046875 40.363281 51.136719 40.484375 51.316406 C 40.574219 51.464844 40.542969 51.671875 40.394531 51.761719 C 40.335938 51.792969 40.273438 51.820312 40.214844 51.820312 Z M 39.976562 51.671875 Z M 39.976562 51.671875 " fill-opacity="1" fill-rule="nonzero"/><path fill="#4e4e50" d="M 43.738281 54 L 43.140625 54 C 42.960938 54 42.8125 53.851562 42.8125 53.671875 C 42.8125 53.492188 42.960938 53.34375 43.140625 53.34375 L 43.679688 53.34375 L 43.679688 51.703125 L 43.320312 51.703125 C 43.140625 51.703125 42.992188 51.554688 42.992188 51.375 C 42.992188 51.195312 43.140625 51.046875 43.320312 51.046875 L 43.710938 51.046875 C 44.039062 51.046875 44.308594 51.316406 44.308594 51.644531 L 44.308594 53.402344 C 44.335938 53.730469 44.066406 54 43.738281 54 Z M 43.738281 51.671875 Z M 43.738281 51.671875 " fill-opacity="1" fill-rule="nonzero"/><path fill="#4e4e50" d="M 47.503906 54 L 45.589844 54 C 45.261719 54 44.992188 53.730469 44.992188 53.402344 L 44.992188 51.644531 C 44.992188 51.316406 45.261719 51.046875 45.589844 51.046875 L 47.503906 51.046875 C 47.832031 51.046875 48.101562 51.316406 48.101562 51.644531 L 48.101562 53.402344 C 48.128906 53.730469 47.832031 54 47.503906 54 Z M 45.652344 53.34375 L 47.441406 53.34375 L 47.441406 51.703125 L 45.652344 51.703125 Z M 45.652344 53.34375 " fill-opacity="1" fill-rule="nonzero"/><path fill="#4e4e50" d="M 51.265625 54 L 49.355469 54 C 49.027344 54 48.757812 53.730469 48.757812 53.402344 L 48.757812 51.644531 C 48.757812 51.316406 49.027344 51.046875 49.355469 51.046875 L 51.265625 51.046875 C 51.59375 51.046875 51.863281 51.316406 51.863281 51.644531 L 51.863281 53.402344 C 51.894531 53.730469 51.625 54 51.265625 54 Z M 49.414062 53.34375 L 51.207031 53.34375 L 51.207031 51.703125 L 49.414062 51.703125 Z M 49.414062 53.34375 " fill-opacity="1" fill-rule="nonzero"/><path fill="#4e4e50" d="M 55.03125 54 L 53.117188 54 C 52.789062 54 52.519531 53.730469 52.519531 53.402344 L 52.519531 51.644531 C 52.519531 51.316406 52.789062 51.046875 53.117188 51.046875 L 55.03125 51.046875 C 55.359375 51.046875 55.625 51.316406 55.625 51.644531 L 55.625 53.402344 C 55.65625 53.730469 55.386719 54 55.03125 54 Z M 53.175781 53.34375 L 54.96875 53.34375 L 54.96875 51.703125 L 53.175781 51.703125 Z M 53.175781 53.34375 " fill-opacity="1" fill-rule="nonzero"/><path fill="#4e4e50" d="M 58.792969 54 L 56.882812 54 C 56.554688 54 56.285156 53.730469 56.285156 53.402344 L 56.285156 51.644531 C 56.285156 51.316406 56.554688 51.046875 56.882812 51.046875 L 58.792969 51.046875 C 59.121094 51.046875 59.390625 51.316406 59.390625 51.644531 L 59.390625 53.402344 C 59.421875 53.730469 59.152344 54 58.792969 54 Z M 56.941406 53.34375 L 58.734375 53.34375 L 58.734375 51.703125 L 56.941406 51.703125 Z M 56.941406 53.34375 " fill-opacity="1" fill-rule="nonzero"/><path fill="#4e4e50" d="M 62.585938 54 L 60.675781 54 C 60.347656 54 60.078125 53.730469 60.078125 53.402344 L 60.078125 51.644531 C 60.078125 51.316406 60.347656 51.046875 60.675781 51.046875 L 62.585938 51.046875 C 62.914062 51.046875 63.183594 51.316406 63.183594 51.644531 L 63.183594 53.402344 C 63.183594 53.730469 62.914062 54 62.585938 54 Z M 60.703125 53.34375 L 62.496094 53.34375 L 62.496094 51.703125 L 60.703125 51.703125 Z M 60.703125 53.34375 " fill-opacity="1" fill-rule="nonzero"/><path fill="#4e4e50" d="M 66.082031 54 L 64.738281 54 C 64.558594 54 64.410156 53.851562 64.410156 53.671875 C 64.410156 53.492188 64.558594 53.34375 64.738281 53.34375 L 66.082031 53.34375 C 66.261719 53.34375 66.410156 53.492188 66.410156 53.671875 C 66.410156 53.851562 66.261719 54 66.082031 54 Z M 66.082031 54 " fill-opacity="1" fill-rule="nonzero"/><path fill="#4e4e50" d="M 64.140625 53.492188 C 63.960938 53.492188 63.8125 53.34375 63.8125 53.164062 L 63.8125 51.644531 C 63.8125 51.316406 64.078125 51.046875 64.410156 51.046875 L 65.335938 51.046875 C 65.511719 51.046875 65.664062 51.195312 65.664062 51.375 C 65.664062 51.554688 65.511719 51.703125 65.335938 51.703125 L 64.46875 51.703125 L 64.46875 53.164062 C 64.46875 53.34375 64.320312 53.492188 64.140625 53.492188 Z M 64.140625 53.492188 " fill-opacity="1" fill-rule="nonzero"/><path fill="#4e4e50" d="M 70.113281 54 L 69.1875 54 C 69.007812 54 68.859375 53.851562 68.859375 53.671875 C 68.859375 53.492188 69.007812 53.34375 69.1875 53.34375 L 70.082031 53.34375 L 70.082031 51.703125 L 68.351562 51.703125 C 68.171875 51.703125 68.023438 51.554688 68.023438 51.375 C 68.023438 51.195312 68.171875 51.046875 68.351562 51.046875 L 70.144531 51.046875 C 70.472656 51.046875 70.742188 51.316406 70.742188 51.644531 L 70.742188 53.402344 C 70.710938 53.730469 70.441406 54 70.113281 54 Z M 70.113281 54 " fill-opacity="1" fill-rule="nonzero"/><path fill="#4e4e50" d="M 43.738281 57.515625 L 43.140625 57.515625 C 42.960938 57.515625 42.8125 57.367188 42.8125 57.1875 C 42.8125 57.011719 42.960938 56.859375 43.140625 56.859375 L 43.679688 56.859375 L 43.679688 55.222656 L 43.082031 55.222656 C 42.902344 55.222656 42.753906 55.070312 42.753906 54.894531 C 42.753906 54.714844 42.902344 54.566406 43.082031 54.566406 L 43.738281 54.566406 C 44.066406 54.566406 44.335938 54.832031 44.335938 55.160156 L 44.335938 56.921875 C 44.335938 57.21875 44.066406 57.515625 43.738281 57.515625 Z M 43.738281 57.515625 " fill-opacity="1" fill-rule="nonzero"/><path fill="#4e4e50" d="M 58.792969 57.515625 L 48.9375 57.515625 C 48.757812 57.515625 48.609375 57.367188 48.609375 57.1875 C 48.609375 57.011719 48.757812 56.859375 48.9375 56.859375 L 58.761719 56.859375 L 58.761719 55.222656 L 45.652344 55.222656 L 45.652344 56.859375 L 46.726562 56.859375 C 46.90625 56.859375 47.054688 57.011719 47.054688 57.1875 C 47.054688 57.367188 46.90625 57.515625 46.726562 57.515625 L 45.589844 57.515625 C 45.261719 57.515625 44.992188 57.25 44.992188 56.921875 L 44.992188 55.160156 C 44.992188 54.832031 45.261719 54.566406 45.589844 54.566406 L 58.792969 54.566406 C 59.121094 54.566406 59.390625 54.832031 59.390625 55.160156 L 59.390625 56.921875 C 59.421875 57.21875 59.152344 57.515625 58.792969 57.515625 Z M 58.792969 57.515625 " fill-opacity="1" fill-rule="nonzero"/><path fill="#4e4e50" d="M 62.585938 57.515625 L 60.675781 57.515625 C 60.347656 57.515625 60.078125 57.25 60.078125 56.921875 L 60.078125 55.160156 C 60.078125 54.832031 60.347656 54.566406 60.675781 54.566406 L 62.585938 54.566406 C 62.914062 54.566406 63.183594 54.832031 63.183594 55.160156 L 63.183594 56.921875 C 63.183594 57.21875 62.914062 57.515625 62.585938 57.515625 Z M 60.703125 56.832031 L 62.496094 56.832031 L 62.496094 55.191406 L 60.703125 55.191406 Z M 60.703125 56.832031 " fill-opacity="1" fill-rule="nonzero"/><path fill="#4e4e50" d="M 66.351562 57.515625 L 65.664062 57.515625 C 65.484375 57.515625 65.335938 57.367188 65.335938 57.1875 C 65.335938 57.011719 65.484375 56.859375 65.664062 56.859375 L 66.320312 56.859375 C 66.378906 56.710938 66.558594 56.652344 66.738281 56.710938 C 66.917969 56.773438 67.007812 56.949219 66.945312 57.128906 C 66.828125 57.339844 66.589844 57.515625 66.351562 57.515625 Z M 66.351562 57.515625 " fill-opacity="1" fill-rule="nonzero"/><path fill="#4e4e50" d="M 66.378906 55.191406 C 66.351562 55.191406 66.351562 55.191406 66.320312 55.191406 L 65.394531 55.191406 C 65.214844 55.191406 65.066406 55.042969 65.066406 54.863281 C 65.066406 54.683594 65.214844 54.535156 65.394531 54.535156 L 66.351562 54.535156 C 66.378906 54.535156 66.4375 54.535156 66.46875 54.535156 C 66.648438 54.566406 66.769531 54.746094 66.707031 54.921875 C 66.679688 55.101562 66.527344 55.191406 66.378906 55.191406 Z M 66.351562 55.191406 Z M 66.320312 55.191406 Z M 66.320312 55.191406 " fill-opacity="1" fill-rule="nonzero"/><path fill="#4e4e50" d="M 72.53125 47.4375 L 70.320312 47.4375 C 70.144531 47.4375 69.992188 47.289062 69.992188 47.109375 C 69.992188 46.933594 70.144531 46.78125 70.320312 46.78125 L 72.472656 46.78125 L 72.472656 45.144531 L 68.082031 45.144531 L 68.082031 46.84375 C 68.113281 47.023438 67.992188 47.171875 67.8125 47.230469 C 67.632812 47.261719 67.453125 47.140625 67.425781 46.960938 C 67.425781 46.933594 67.425781 46.871094 67.425781 46.84375 L 67.425781 45.082031 C 67.425781 44.753906 67.695312 44.488281 68.023438 44.488281 L 72.53125 44.488281 C 72.859375 44.488281 73.128906 44.753906 73.128906 45.082031 L 73.128906 46.84375 C 73.128906 47.171875 72.859375 47.4375 72.53125 47.4375 Z M 68.082031 46.8125 Z M 68.082031 46.8125 Z M 68.082031 46.8125 " fill-opacity="1" fill-rule="nonzero"/><path fill="#4e4e50" d="M 63.332031 60.46875 L 47.832031 60.46875 C 47.652344 60.46875 47.503906 60.320312 47.503906 60.140625 C 47.503906 59.960938 47.652344 59.8125 47.832031 59.8125 L 63.332031 59.8125 C 63.511719 59.8125 63.660156 59.960938 63.660156 60.140625 C 63.660156 60.320312 63.511719 60.46875 63.332031 60.46875 Z M 63.332031 60.46875 " fill-opacity="1" fill-rule="nonzero"/><path fill="#4e4e50" d="M 64.796875 72.097656 L 43.859375 72.097656 C 43.082031 72.097656 42.453125 71.472656 42.453125 70.695312 L 42.453125 70.277344 C 42.453125 70.101562 42.605469 69.949219 42.785156 69.949219 C 42.960938 69.949219 43.113281 70.101562 43.113281 70.277344 L 43.113281 70.695312 C 43.113281 71.113281 43.441406 71.441406 43.859375 71.441406 L 64.796875 71.441406 C 65.214844 71.441406 65.542969 71.113281 65.542969 70.695312 L 65.542969 67.265625 C 65.542969 67.089844 65.691406 66.9375 65.871094 66.9375 C 66.050781 66.9375 66.199219 67.089844 66.199219 67.265625 L 66.199219 70.695312 C 66.199219 71.472656 65.574219 72.097656 64.796875 72.097656 Z M 64.796875 72.097656 " fill-opacity="1" fill-rule="nonzero"/><path fill="#4e4e50" d="M 43.589844 60.5 C 43.441406 60.5 43.320312 60.410156 43.261719 60.261719 C 43.203125 60.082031 43.320312 59.902344 43.5 59.84375 C 43.621094 59.8125 43.738281 59.785156 43.859375 59.785156 L 44.726562 59.785156 C 44.902344 59.785156 45.054688 59.933594 45.054688 60.109375 C 45.054688 60.289062 44.902344 60.4375 44.726562 60.4375 L 43.859375 60.4375 C 43.800781 60.4375 43.738281 60.4375 43.679688 60.46875 C 43.648438 60.5 43.621094 60.5 43.589844 60.5 Z M 43.589844 60.5 " fill-opacity="1" fill-rule="nonzero"/><path fill="#4e4e50" d="M 56.941406 107.3125 C 48.21875 107.3125 39.558594 105.164062 31.882812 101.140625 C 31.730469 101.050781 31.671875 100.839844 31.730469 100.691406 C 31.792969 100.542969 32.03125 100.484375 32.179688 100.542969 C 39.738281 104.539062 48.308594 106.65625 56.941406 106.65625 C 63.691406 106.65625 70.261719 105.402344 76.476562 102.957031 C 76.65625 102.898438 76.832031 102.988281 76.894531 103.136719 C 76.953125 103.316406 76.863281 103.496094 76.714844 103.554688 C 70.441406 106.058594 63.78125 107.3125 56.941406 107.3125 Z M 56.941406 107.3125 " fill-opacity="1" fill-rule="nonzero"/><g clip-path="url(#609be37105)"><path fill="#4e4e50" d="M 89.167969 96.546875 C 89.078125 96.546875 88.960938 96.488281 88.902344 96.429688 C 88.78125 96.28125 88.8125 96.070312 88.960938 95.953125 C 102.339844 85.84375 110.046875 70.429688 110.046875 53.671875 C 110.046875 24.449219 86.210938 0.65625 56.941406 0.65625 C 27.667969 0.65625 3.863281 24.449219 3.863281 53.671875 C 3.863281 67.566406 9.210938 80.683594 18.886719 90.613281 C 19.007812 90.734375 19.007812 90.941406 18.886719 91.089844 C 18.769531 91.210938 18.558594 91.210938 18.410156 91.089844 C 8.582031 81.011719 3.207031 67.714844 3.207031 53.671875 C 3.207031 46.425781 4.640625 39.386719 7.417969 32.769531 C 10.136719 26.386719 13.988281 20.632812 18.949219 15.714844 C 23.90625 10.792969 29.613281 6.917969 36.03125 4.203125 C 42.664062 1.429688 49.683594 0 56.941406 0 C 64.199219 0 71.25 1.429688 77.878906 4.203125 C 84.269531 6.917969 90.035156 10.765625 94.964844 15.714844 C 99.890625 20.632812 103.773438 26.386719 106.492188 32.769531 C 109.300781 39.386719 110.703125 46.425781 110.703125 53.671875 C 110.703125 62.226562 108.761719 70.398438 104.910156 77.972656 C 101.234375 85.1875 95.859375 91.597656 89.378906 96.488281 C 89.289062 96.519531 89.230469 96.546875 89.167969 96.546875 Z M 89.167969 96.546875 " fill-opacity="1" fill-rule="nonzero"/></g><path fill="#4e4e50" d="M 58.703125 106.269531 C 58.316406 106.269531 57.957031 106.117188 57.6875 105.851562 L 38.273438 86.46875 C 38.003906 86.203125 37.855469 85.84375 37.855469 85.457031 C 37.855469 85.066406 38.003906 84.710938 38.273438 84.441406 L 46.84375 75.882812 C 47.113281 75.617188 47.472656 75.46875 47.859375 75.46875 C 48.25 75.46875 48.609375 75.617188 48.875 75.882812 L 68.261719 95.234375 C 68.53125 95.503906 68.679688 95.863281 68.679688 96.25 C 68.679688 96.636719 68.53125 96.996094 68.261719 97.261719 L 59.6875 105.820312 C 59.449219 106.117188 59.089844 106.269531 58.703125 106.269531 Z M 47.859375 76.125 C 47.652344 76.125 47.441406 76.210938 47.292969 76.363281 L 38.722656 84.917969 C 38.570312 85.066406 38.480469 85.277344 38.480469 85.484375 C 38.480469 85.695312 38.570312 85.902344 38.722656 86.050781 L 58.105469 105.402344 C 58.253906 105.550781 58.464844 105.640625 58.671875 105.640625 C 58.882812 105.640625 59.089844 105.550781 59.242188 105.402344 L 67.8125 96.847656 C 67.960938 96.695312 68.050781 96.488281 68.050781 96.28125 C 68.050781 96.070312 67.960938 95.863281 67.8125 95.714844 L 48.429688 76.332031 C 48.277344 76.183594 48.070312 76.125 47.859375 76.125 Z M 47.859375 76.125 " fill-opacity="1" fill-rule="nonzero"/><path fill="#4e4e50" d="M 62.4375 101.230469 C 62.109375 101.230469 61.808594 101.109375 61.570312 100.871094 C 61.09375 100.394531 61.09375 99.589844 61.570312 99.113281 C 62.046875 98.636719 62.855469 98.636719 63.332031 99.113281 C 63.8125 99.589844 63.8125 100.394531 63.332031 100.871094 C 63.0625 101.109375 62.734375 101.230469 62.4375 101.230469 Z M 62.4375 99.410156 C 62.289062 99.410156 62.136719 99.46875 62.019531 99.589844 C 61.78125 99.828125 61.78125 100.183594 62.019531 100.394531 C 62.257812 100.601562 62.617188 100.632812 62.824219 100.394531 C 63.035156 100.15625 63.0625 99.796875 62.824219 99.589844 C 62.734375 99.46875 62.585938 99.410156 62.4375 99.410156 Z M 62.4375 99.410156 " fill-opacity="1" fill-rule="nonzero"/><path fill="#4e4e50" d="M 57.480469 103.40625 C 57.390625 103.40625 57.300781 103.375 57.238281 103.316406 L 40.722656 86.828125 C 40.601562 86.707031 40.601562 86.5 40.722656 86.351562 L 48.757812 78.328125 C 48.875 78.210938 49.085938 78.210938 49.234375 78.328125 L 65.753906 94.820312 C 65.871094 94.9375 65.871094 95.144531 65.753906 95.296875 L 57.71875 103.316406 C 57.628906 103.375 57.570312 103.40625 57.480469 103.40625 Z M 41.4375 86.589844 L 57.480469 102.601562 L 65.066406 95.027344 L 48.996094 79.015625 Z M 41.4375 86.589844 " fill-opacity="1" fill-rule="nonzero"/><path fill="#4e4e50" d="M 43.378906 82.863281 C 43.292969 82.863281 43.203125 82.832031 43.140625 82.773438 C 43.023438 82.652344 43.023438 82.445312 43.140625 82.296875 L 44.695312 80.746094 C 44.816406 80.625 45.023438 80.625 45.171875 80.746094 C 45.292969 80.863281 45.292969 81.074219 45.171875 81.222656 L 43.621094 82.773438 C 43.558594 82.832031 43.46875 82.863281 43.378906 82.863281 Z M 43.378906 82.863281 " fill-opacity="1" fill-rule="nonzero"/><path fill="#4e4e50" d="M 42.753906 83.398438 C 42.753906 83.558594 42.675781 83.636719 42.515625 83.636719 C 42.355469 83.636719 42.277344 83.558594 42.277344 83.398438 C 42.277344 83.238281 42.355469 83.160156 42.515625 83.160156 C 42.675781 83.160156 42.753906 83.238281 42.753906 83.398438 Z M 42.753906 83.398438 " fill-opacity="1" fill-rule="nonzero"/><path fill="#4e4e50" d="M 48.488281 88.230469 C 48.398438 88.230469 48.308594 88.199219 48.25 88.140625 L 46.90625 86.796875 C 46.84375 86.738281 46.726562 86.738281 46.667969 86.796875 L 46.335938 87.125 C 46.21875 87.246094 46.007812 87.246094 45.859375 87.125 C 45.742188 87.007812 45.742188 86.796875 45.859375 86.648438 L 46.1875 86.320312 C 46.515625 85.992188 47.023438 85.992188 47.351562 86.320312 L 48.699219 87.664062 C 48.816406 87.78125 48.816406 87.992188 48.699219 88.140625 C 48.636719 88.199219 48.546875 88.230469 48.488281 88.230469 Z M 48.488281 88.230469 " fill-opacity="1" fill-rule="nonzero"/><path fill="#4e4e50" d="M 46.335938 90.257812 C 46.070312 90.257812 45.800781 90.136719 45.589844 89.957031 L 44.84375 89.210938 C 44.425781 88.796875 44.425781 88.140625 44.84375 87.722656 C 45.054688 87.511719 45.320312 87.421875 45.589844 87.421875 C 45.859375 87.421875 46.128906 87.542969 46.335938 87.722656 L 47.085938 88.46875 C 47.503906 88.886719 47.503906 89.539062 47.085938 89.957031 C 46.875 90.136719 46.636719 90.257812 46.335938 90.257812 Z M 45.589844 88.019531 C 45.472656 88.019531 45.382812 88.050781 45.320312 88.140625 C 45.171875 88.289062 45.171875 88.558594 45.320312 88.707031 L 46.070312 89.453125 C 46.21875 89.601562 46.488281 89.601562 46.636719 89.453125 C 46.785156 89.300781 46.785156 89.035156 46.636719 88.886719 L 45.890625 88.140625 C 45.800781 88.078125 45.679688 88.019531 45.589844 88.019531 Z M 45.589844 88.019531 " fill-opacity="1" fill-rule="nonzero"/><path fill="#4e4e50" d="M 49.890625 86.707031 C 49.625 86.707031 49.355469 86.589844 49.144531 86.410156 L 48.398438 85.664062 C 48.191406 85.457031 48.101562 85.1875 48.101562 84.917969 C 48.101562 84.652344 48.21875 84.382812 48.398438 84.171875 C 48.816406 83.757812 49.472656 83.757812 49.890625 84.171875 L 50.640625 84.917969 C 50.847656 85.128906 50.9375 85.394531 50.9375 85.664062 C 50.9375 85.933594 50.816406 86.203125 50.640625 86.410156 C 50.460938 86.617188 50.160156 86.707031 49.890625 86.707031 Z M 49.117188 84.5 C 49.027344 84.5 48.90625 84.53125 48.847656 84.621094 C 48.757812 84.710938 48.726562 84.800781 48.726562 84.890625 C 48.726562 85.007812 48.757812 85.097656 48.847656 85.15625 L 49.59375 85.902344 C 49.742188 86.050781 50.011719 86.050781 50.160156 85.902344 C 50.25 85.8125 50.28125 85.722656 50.28125 85.632812 C 50.28125 85.515625 50.25 85.425781 50.160156 85.367188 L 49.414062 84.621094 C 49.324219 84.53125 49.234375 84.5 49.117188 84.5 Z M 49.117188 84.5 " fill-opacity="1" fill-rule="nonzero"/><path fill="#4e4e50" d="M 51.59375 84.980469 C 51.324219 84.980469 51.058594 84.890625 50.847656 84.679688 L 50.101562 83.933594 C 49.683594 83.519531 49.683594 82.863281 50.101562 82.445312 C 50.519531 82.027344 51.175781 82.027344 51.59375 82.445312 L 52.339844 83.191406 C 52.550781 83.398438 52.640625 83.667969 52.640625 83.933594 C 52.640625 84.203125 52.519531 84.472656 52.339844 84.679688 C 52.164062 84.890625 51.863281 84.980469 51.59375 84.980469 Z M 50.847656 82.773438 C 50.757812 82.773438 50.640625 82.800781 50.578125 82.890625 C 50.488281 82.980469 50.460938 83.070312 50.460938 83.160156 C 50.460938 83.277344 50.488281 83.367188 50.578125 83.429688 L 51.324219 84.171875 C 51.476562 84.324219 51.742188 84.324219 51.894531 84.171875 C 51.984375 84.085938 52.011719 83.996094 52.011719 83.90625 C 52.011719 83.785156 51.984375 83.695312 51.894531 83.636719 L 51.148438 82.890625 C 51.058594 82.800781 50.9375 82.773438 50.847656 82.773438 Z M 50.847656 82.773438 " fill-opacity="1" fill-rule="nonzero"/><path fill="#4e4e50" d="M 47.859375 86.289062 C 47.769531 86.289062 47.683594 86.261719 47.621094 86.203125 L 47.472656 86.050781 C 47.351562 85.933594 47.351562 85.722656 47.472656 85.574219 C 47.59375 85.457031 47.800781 85.457031 47.949219 85.574219 L 48.101562 85.722656 C 48.21875 85.84375 48.21875 86.050781 48.101562 86.203125 C 48.039062 86.261719 47.949219 86.289062 47.859375 86.289062 Z M 47.859375 86.289062 " fill-opacity="1" fill-rule="nonzero"/><path fill="#4e4e50" d="M 49.027344 87.484375 C 48.9375 87.484375 48.847656 87.453125 48.785156 87.394531 L 48.636719 87.246094 C 48.519531 87.125 48.519531 86.917969 48.636719 86.769531 C 48.757812 86.648438 48.964844 86.648438 49.117188 86.769531 L 49.265625 86.917969 C 49.382812 87.035156 49.382812 87.246094 49.265625 87.394531 C 49.207031 87.453125 49.117188 87.484375 49.027344 87.484375 Z M 49.027344 87.484375 " fill-opacity="1" fill-rule="nonzero"/><path fill="#4e4e50" d="M 55 96.667969 C 54.851562 96.667969 54.730469 96.609375 54.613281 96.519531 C 54.402344 96.308594 54.402344 95.953125 54.613281 95.742188 C 54.699219 95.652344 54.851562 95.59375 55 95.59375 C 55.148438 95.59375 55.269531 95.652344 55.386719 95.742188 C 55.476562 95.832031 55.539062 95.980469 55.539062 96.128906 C 55.539062 96.28125 55.476562 96.398438 55.386719 96.519531 C 55.269531 96.609375 55.148438 96.667969 55 96.667969 Z M 54.910156 96.191406 C 54.941406 96.21875 55.03125 96.21875 55.058594 96.191406 C 55.117188 96.128906 55.117188 96.070312 55.058594 96.039062 C 55 95.980469 54.941406 95.980469 54.910156 96.039062 C 54.878906 96.070312 54.878906 96.101562 54.878906 96.128906 C 54.878906 96.128906 54.910156 96.160156 54.910156 96.191406 Z M 54.910156 96.191406 Z M 54.910156 96.191406 " fill-opacity="1" fill-rule="nonzero"/><path fill="#4e4e50" d="M 56.761719 94.878906 C 56.613281 94.878906 56.492188 94.820312 56.375 94.730469 C 56.164062 94.519531 56.164062 94.164062 56.375 93.953125 C 56.582031 93.746094 56.941406 93.746094 57.148438 93.953125 C 57.359375 94.164062 57.359375 94.519531 57.148438 94.730469 C 57.0625 94.847656 56.910156 94.878906 56.761719 94.878906 Z M 56.851562 94.25 L 56.703125 94.402344 C 56.761719 94.460938 56.820312 94.460938 56.851562 94.402344 C 56.910156 94.371094 56.910156 94.3125 56.851562 94.25 Z M 56.761719 94.222656 C 56.730469 94.222656 56.703125 94.222656 56.671875 94.25 C 56.613281 94.3125 56.613281 94.371094 56.671875 94.402344 L 56.820312 94.25 C 56.820312 94.25 56.792969 94.222656 56.761719 94.222656 Z M 56.761719 94.222656 " fill-opacity="1" fill-rule="nonzero"/><path fill="#4e4e50" d="M 58.554688 93.117188 C 58.40625 93.117188 58.253906 93.058594 58.164062 92.96875 C 58.074219 92.878906 58.015625 92.730469 58.015625 92.582031 C 58.015625 92.433594 58.074219 92.3125 58.164062 92.195312 C 58.375 91.984375 58.734375 91.984375 58.941406 92.195312 C 59.152344 92.402344 59.152344 92.761719 58.941406 92.96875 C 58.824219 93.058594 58.671875 93.117188 58.554688 93.117188 Z M 58.554688 92.464844 C 58.523438 92.464844 58.496094 92.464844 58.464844 92.492188 C 58.40625 92.550781 58.40625 92.613281 58.464844 92.640625 C 58.523438 92.703125 58.582031 92.703125 58.613281 92.640625 C 58.644531 92.613281 58.644531 92.582031 58.644531 92.550781 C 58.644531 92.523438 58.644531 92.492188 58.613281 92.464844 C 58.613281 92.464844 58.582031 92.464844 58.554688 92.464844 Z M 58.554688 92.464844 " fill-opacity="1" fill-rule="nonzero"/><path fill="#4e4e50" d="M 56.761719 98.425781 C 56.613281 98.425781 56.492188 98.367188 56.375 98.277344 C 56.164062 98.070312 56.164062 97.710938 56.375 97.503906 C 56.582031 97.292969 56.941406 97.292969 57.148438 97.503906 C 57.359375 97.710938 57.359375 98.070312 57.148438 98.277344 C 57.0625 98.367188 56.910156 98.425781 56.761719 98.425781 Z M 56.851562 97.800781 L 56.703125 97.949219 C 56.761719 98.007812 56.820312 98.007812 56.851562 97.949219 C 56.910156 97.917969 56.910156 97.828125 56.851562 97.800781 Z M 56.761719 97.769531 C 56.730469 97.769531 56.703125 97.769531 56.671875 97.800781 C 56.613281 97.859375 56.613281 97.917969 56.671875 97.949219 L 56.820312 97.800781 C 56.820312 97.769531 56.792969 97.769531 56.761719 97.769531 Z M 56.761719 97.769531 " fill-opacity="1" fill-rule="nonzero"/><path fill="#4e4e50" d="M 58.554688 96.667969 C 58.40625 96.667969 58.285156 96.609375 58.164062 96.519531 C 58.074219 96.429688 58.015625 96.28125 58.015625 96.128906 C 58.015625 95.980469 58.074219 95.832031 58.164062 95.742188 C 58.253906 95.652344 58.40625 95.59375 58.554688 95.59375 C 58.703125 95.59375 58.824219 95.652344 58.941406 95.742188 C 59.152344 95.953125 59.152344 96.308594 58.941406 96.519531 C 58.824219 96.609375 58.671875 96.667969 58.554688 96.667969 Z M 58.464844 96.191406 C 58.496094 96.21875 58.582031 96.21875 58.613281 96.191406 C 58.644531 96.160156 58.644531 96.128906 58.644531 96.101562 C 58.644531 96.070312 58.644531 96.039062 58.613281 96.011719 C 58.554688 95.953125 58.496094 95.953125 58.464844 96.011719 C 58.40625 96.070312 58.40625 96.160156 58.464844 96.191406 Z M 58.464844 96.191406 Z M 58.464844 96.191406 " fill-opacity="1" fill-rule="nonzero"/><path fill="#4e4e50" d="M 60.316406 94.878906 C 60.167969 94.878906 60.046875 94.820312 59.929688 94.730469 C 59.71875 94.519531 59.71875 94.164062 59.929688 93.953125 C 60.136719 93.746094 60.496094 93.746094 60.703125 93.953125 C 60.914062 94.164062 60.914062 94.519531 60.703125 94.730469 C 60.585938 94.847656 60.4375 94.878906 60.316406 94.878906 Z M 60.316406 94.222656 C 60.285156 94.222656 60.257812 94.222656 60.226562 94.25 C 60.167969 94.3125 60.167969 94.371094 60.226562 94.402344 C 60.285156 94.460938 60.347656 94.460938 60.375 94.402344 C 60.4375 94.339844 60.4375 94.28125 60.375 94.25 C 60.375 94.25 60.347656 94.222656 60.316406 94.222656 Z M 60.316406 94.222656 " fill-opacity="1" fill-rule="nonzero"/><path fill="#4e4e50" d="M 58.554688 100.183594 C 58.40625 100.183594 58.285156 100.125 58.164062 100.035156 C 58.074219 99.945312 58.015625 99.796875 58.015625 99.648438 C 58.015625 99.5 58.074219 99.378906 58.164062 99.261719 C 58.375 99.050781 58.734375 99.050781 58.941406 99.261719 C 59.152344 99.46875 59.152344 99.828125 58.941406 100.035156 C 58.824219 100.125 58.671875 100.183594 58.554688 100.183594 Z M 58.613281 99.558594 L 58.464844 99.707031 C 58.523438 99.769531 58.582031 99.769531 58.613281 99.707031 C 58.644531 99.679688 58.644531 99.648438 58.644531 99.617188 C 58.644531 99.589844 58.644531 99.589844 58.613281 99.558594 Z M 58.554688 99.53125 C 58.523438 99.53125 58.496094 99.53125 58.464844 99.558594 C 58.40625 99.617188 58.40625 99.679688 58.464844 99.707031 L 58.613281 99.558594 C 58.613281 99.53125 58.582031 99.53125 58.554688 99.53125 Z M 58.554688 99.53125 " fill-opacity="1" fill-rule="nonzero"/><path fill="#4e4e50" d="M 60.316406 98.425781 C 60.167969 98.425781 60.046875 98.367188 59.929688 98.277344 C 59.71875 98.070312 59.71875 97.710938 59.929688 97.503906 C 60.136719 97.292969 60.496094 97.292969 60.703125 97.503906 C 60.792969 97.589844 60.855469 97.742188 60.855469 97.890625 C 60.855469 98.039062 60.792969 98.1875 60.703125 98.277344 C 60.585938 98.367188 60.464844 98.425781 60.316406 98.425781 Z M 60.226562 97.949219 C 60.285156 98.007812 60.347656 98.007812 60.375 97.949219 C 60.4375 97.890625 60.4375 97.828125 60.375 97.800781 C 60.347656 97.769531 60.257812 97.769531 60.226562 97.800781 C 60.195312 97.828125 60.195312 97.859375 60.195312 97.890625 C 60.195312 97.917969 60.195312 97.949219 60.226562 97.949219 Z M 60.226562 97.949219 Z M 60.226562 97.949219 " fill-opacity="1" fill-rule="nonzero"/><path fill="#4e4e50" d="M 62.078125 96.667969 C 61.929688 96.667969 61.808594 96.609375 61.691406 96.519531 C 61.601562 96.429688 61.539062 96.28125 61.539062 96.128906 C 61.539062 95.980469 61.601562 95.832031 61.691406 95.742188 C 61.78125 95.652344 61.929688 95.59375 62.078125 95.59375 C 62.226562 95.59375 62.347656 95.652344 62.46875 95.742188 C 62.675781 95.953125 62.675781 96.308594 62.46875 96.519531 C 62.347656 96.609375 62.226562 96.667969 62.078125 96.667969 Z M 61.988281 96.191406 C 62.019531 96.21875 62.109375 96.21875 62.136719 96.191406 C 62.167969 96.160156 62.167969 96.128906 62.167969 96.101562 C 62.167969 96.070312 62.167969 96.039062 62.136719 96.011719 C 62.078125 95.953125 62.019531 95.953125 61.988281 96.011719 C 61.960938 96.070312 61.960938 96.160156 61.988281 96.191406 Z M 61.988281 96.191406 Z M 61.988281 96.191406 " fill-opacity="1" fill-rule="nonzero"/><path fill="#4e4e50" d="M 54.550781 24.71875 L 32.988281 24.71875 C 32.808594 24.71875 32.65625 24.570312 32.65625 24.390625 C 32.65625 24.210938 32.808594 24.0625 32.988281 24.0625 L 54.550781 24.0625 C 54.730469 24.0625 54.878906 24.210938 54.878906 24.390625 C 54.878906 24.570312 54.730469 24.71875 54.550781 24.71875 Z M 54.550781 24.71875 " fill-opacity="1" fill-rule="nonzero"/><path fill="#4e4e50" d="M 48.9375 33.214844 L 35.675781 33.214844 C 35.496094 33.214844 35.375 33.097656 35.347656 32.917969 L 34.539062 26.210938 C 34.539062 26.121094 34.570312 26.03125 34.628906 25.941406 C 34.6875 25.882812 34.777344 25.820312 34.867188 25.820312 L 49.535156 25.820312 C 49.625 25.820312 49.714844 25.851562 49.773438 25.941406 C 49.832031 26 49.863281 26.089844 49.863281 26.179688 L 49.265625 32.886719 C 49.234375 33.097656 49.085938 33.214844 48.9375 33.214844 Z M 35.945312 32.558594 L 48.609375 32.558594 L 49.144531 26.507812 L 35.226562 26.507812 Z M 35.945312 32.558594 " fill-opacity="1" fill-rule="nonzero"/><path fill="#4e4e50" d="M 49.027344 32.023438 L 35.523438 32.023438 C 35.347656 32.023438 35.195312 31.875 35.195312 31.695312 C 35.195312 31.515625 35.347656 31.367188 35.523438 31.367188 L 49.027344 31.367188 C 49.207031 31.367188 49.355469 31.515625 49.355469 31.695312 C 49.355469 31.875 49.207031 32.023438 49.027344 32.023438 Z M 49.027344 32.023438 " fill-opacity="1" fill-rule="nonzero"/><path fill="#4e4e50" d="M 48.726562 34.828125 L 36.0625 34.828125 C 35.882812 34.828125 35.734375 34.675781 35.734375 34.5 C 35.734375 34.320312 35.882812 34.171875 36.0625 34.171875 L 48.726562 34.171875 C 48.90625 34.171875 49.054688 34.320312 49.054688 34.5 C 49.054688 34.675781 48.90625 34.828125 48.726562 34.828125 Z M 48.726562 34.828125 " fill-opacity="1" fill-rule="nonzero"/><path fill="#4e4e50" d="M 40.066406 36.136719 L 36.0625 36.136719 C 35.882812 36.136719 35.734375 35.988281 35.734375 35.808594 C 35.734375 35.632812 35.882812 35.480469 36.0625 35.480469 L 40.066406 35.480469 C 40.246094 35.480469 40.394531 35.632812 40.394531 35.808594 C 40.394531 35.988281 40.246094 36.136719 40.066406 36.136719 Z M 40.066406 36.136719 " fill-opacity="1" fill-rule="nonzero"/><path fill="#4e4e50" d="M 50.847656 23.4375 C 50.847656 23.511719 50.820312 23.574219 50.769531 23.625 C 50.714844 23.679688 50.652344 23.703125 50.578125 23.703125 C 50.503906 23.703125 50.441406 23.679688 50.390625 23.625 C 50.335938 23.574219 50.308594 23.511719 50.308594 23.4375 C 50.308594 23.363281 50.335938 23.300781 50.390625 23.246094 C 50.441406 23.195312 50.503906 23.167969 50.578125 23.167969 C 50.652344 23.167969 50.714844 23.195312 50.769531 23.246094 C 50.820312 23.300781 50.847656 23.363281 50.847656 23.4375 Z M 50.847656 23.4375 " fill-opacity="1" fill-rule="nonzero"/><path fill="#4e4e50" d="M 52.25 23.4375 C 52.25 23.511719 52.226562 23.574219 52.171875 23.625 C 52.121094 23.679688 52.058594 23.703125 51.984375 23.703125 C 51.910156 23.703125 51.84375 23.679688 51.792969 23.625 C 51.742188 23.574219 51.714844 23.511719 51.714844 23.4375 C 51.714844 23.363281 51.742188 23.300781 51.792969 23.246094 C 51.84375 23.195312 51.910156 23.167969 51.984375 23.167969 C 52.058594 23.167969 52.121094 23.195312 52.171875 23.246094 C 52.226562 23.300781 52.25 23.363281 52.25 23.4375 Z M 52.25 23.4375 " fill-opacity="1" fill-rule="nonzero"/><path fill="#4e4e50" d="M 53.65625 23.4375 C 53.65625 23.511719 53.628906 23.574219 53.578125 23.625 C 53.523438 23.679688 53.460938 23.703125 53.386719 23.703125 C 53.3125 23.703125 53.25 23.679688 53.195312 23.625 C 53.144531 23.574219 53.117188 23.511719 53.117188 23.4375 C 53.117188 23.363281 53.144531 23.300781 53.195312 23.246094 C 53.25 23.195312 53.3125 23.167969 53.386719 23.167969 C 53.460938 23.167969 53.523438 23.195312 53.578125 23.246094 C 53.628906 23.300781 53.65625 23.363281 53.65625 23.4375 Z M 53.65625 23.4375 " fill-opacity="1" fill-rule="nonzero"/><path fill="#4e4e50" d="M 37.046875 24.71875 C 36.871094 24.71875 36.71875 24.570312 36.71875 24.390625 L 36.71875 22.453125 C 36.71875 22.273438 36.871094 22.125 37.046875 22.125 C 37.226562 22.125 37.378906 22.273438 37.378906 22.453125 L 37.378906 24.390625 C 37.40625 24.570312 37.257812 24.71875 37.046875 24.71875 Z M 37.046875 24.71875 " fill-opacity="1" fill-rule="nonzero"/><path fill="#4e4e50" d="M 41.019531 24.71875 C 40.84375 24.71875 40.691406 24.570312 40.691406 24.390625 L 40.691406 22.453125 C 40.691406 22.273438 40.84375 22.125 41.019531 22.125 C 41.199219 22.125 41.351562 22.273438 41.351562 22.453125 L 41.351562 24.390625 C 41.378906 24.570312 41.230469 24.71875 41.019531 24.71875 Z M 41.019531 24.71875 " fill-opacity="1" fill-rule="nonzero"/><path fill="#4e4e50" d="M 76.234375 28.921875 L 63.511719 28.921875 C 63.332031 28.921875 63.183594 28.773438 63.183594 28.59375 C 63.183594 28.414062 63.332031 28.265625 63.511719 28.265625 L 76.265625 28.265625 C 76.445312 28.265625 76.59375 28.414062 76.59375 28.59375 C 76.59375 28.773438 76.414062 28.921875 76.234375 28.921875 Z M 76.234375 28.921875 " fill-opacity="1" fill-rule="nonzero"/><path fill="#4e4e50" d="M 74.652344 30.980469 L 67.007812 30.980469 C 66.828125 30.980469 66.679688 30.832031 66.679688 30.652344 C 66.679688 30.472656 66.828125 30.324219 67.007812 30.324219 L 74.652344 30.324219 C 74.832031 30.324219 74.980469 30.472656 74.980469 30.652344 C 74.980469 30.832031 74.832031 30.980469 74.652344 30.980469 Z M 74.652344 30.980469 " fill-opacity="1" fill-rule="nonzero"/><path fill="#4e4e50" d="M 74.652344 33.214844 L 64.585938 33.214844 C 64.410156 33.214844 64.257812 33.066406 64.257812 32.886719 C 64.257812 32.710938 64.410156 32.558594 64.585938 32.558594 L 74.652344 32.558594 C 74.832031 32.558594 74.980469 32.710938 74.980469 32.886719 C 74.980469 33.066406 74.832031 33.214844 74.652344 33.214844 Z M 74.652344 33.214844 " fill-opacity="1" fill-rule="nonzero"/><path fill="#4e4e50" d="M 74.265625 35.453125 L 64.347656 35.453125 C 64.167969 35.453125 64.019531 35.304688 64.019531 35.125 C 64.019531 34.945312 64.167969 34.796875 64.347656 34.796875 L 74.265625 34.796875 C 74.445312 34.796875 74.59375 34.945312 74.59375 35.125 C 74.59375 35.304688 74.445312 35.453125 74.265625 35.453125 Z M 74.265625 35.453125 " fill-opacity="1" fill-rule="nonzero"/><path fill="#4e4e50" d="M 12.347656 111.097656 L 31.761719 111.097656 C 31.761719 111.097656 31.253906 104.210938 32.300781 99.289062 C 33.34375 94.371094 35.945312 85.394531 35.945312 85.394531 L 37.199219 81.996094 C 37.199219 81.996094 33.734375 82.234375 31.105469 81.222656 C 28.476562 80.207031 25.816406 78.210938 25.816406 78.210938 L 20.171875 88.167969 C 20.171875 88.167969 14.140625 98.425781 13.929688 99.648438 C 13.929688 99.648438 12.289062 104.0625 12.464844 106.835938 Z M 12.347656 111.097656 " fill-opacity="1" fill-rule="nonzero"/><path fill="#ffffff" d="M 35.015625 86.023438 C 35.015625 86.023438 34.988281 86.023438 34.988281 86.023438 C 31.253906 85.605469 27.699219 83.996094 24.953125 81.429688 C 24.800781 81.3125 24.800781 81.101562 24.921875 80.953125 C 25.042969 80.804688 25.25 80.804688 25.398438 80.921875 C 28.058594 83.367188 31.492188 84.917969 35.078125 85.335938 C 35.257812 85.367188 35.375 85.515625 35.375 85.695312 C 35.347656 85.902344 35.195312 86.023438 35.015625 86.023438 Z M 35.015625 86.023438 " fill-opacity="1" fill-rule="nonzero"/><path fill="#4e4e50" d="M 78.625 111.097656 L 91.527344 111.097656 L 91.46875 100.871094 L 86.421875 90.613281 L 82.628906 81.460938 L 81.703125 78.449219 C 81.703125 78.449219 77.3125 79.3125 74.863281 80.417969 C 72.414062 81.519531 69.574219 82.800781 69.574219 82.800781 L 73.101562 92.136719 L 75.847656 100.664062 L 77.730469 107.519531 Z M 78.625 111.097656 " fill-opacity="1" fill-rule="nonzero"/><path fill="#ffffff" d="M 71.816406 85.277344 C 71.695312 85.277344 71.605469 85.21875 71.515625 85.128906 C 71.425781 84.980469 71.488281 84.769531 71.636719 84.679688 C 74.503906 82.980469 77.789062 81.96875 81.132812 81.789062 C 81.3125 81.789062 81.464844 81.90625 81.492188 82.085938 C 81.492188 82.265625 81.375 82.414062 81.195312 82.445312 C 77.96875 82.625 74.773438 83.605469 71.996094 85.246094 C 71.933594 85.277344 71.875 85.277344 71.816406 85.277344 Z M 71.816406 85.277344 " fill-opacity="1" fill-rule="nonzero"/><path fill="#ffffff" d="M 78.117188 81.132812 C 78 81.132812 77.878906 81.074219 77.820312 80.953125 C 77.730469 80.773438 77.820312 80.59375 77.96875 80.507812 C 78.773438 80.117188 79.699219 79.941406 80.597656 79.96875 C 80.777344 79.96875 80.925781 80.117188 80.925781 80.296875 C 80.925781 80.476562 80.777344 80.625 80.597656 80.625 C 79.789062 80.59375 78.984375 80.773438 78.265625 81.101562 C 78.207031 81.101562 78.148438 81.132812 78.117188 81.132812 Z M 78.117188 81.132812 " fill-opacity="1" fill-rule="nonzero"/></svg>