<svg xmlns="http://www.w3.org/2000/svg" xmlns:xlink="http://www.w3.org/1999/xlink" width="300" zoomAndPan="magnify" viewBox="0 0 224.87999 112.499997" height="150" preserveAspectRatio="xMidYMid meet" version="1.0"><defs><g/><clipPath id="2db6124e59"><path d="M 71.289062 12 L 148 12 L 148 64.214844 L 71.289062 64.214844 Z M 71.289062 12 " clip-rule="nonzero"/></clipPath><clipPath id="bb497bd53b"><path d="M 138 0 L 153.425781 0 L 153.425781 15 L 138 15 Z M 138 0 " clip-rule="nonzero"/></clipPath></defs><g clip-path="url(#2db6124e59)"><path fill="#3a9bdc" d="M 80.253906 12.183594 L 112.679688 12.183594 L 112.679688 14.84375 L 84.125 14.84375 C 83.066406 14.84375 82.199219 15.714844 82.199219 16.78125 L 82.199219 47.113281 C 82.199219 48.175781 83.066406 49.046875 84.125 49.046875 L 133.851562 49.046875 C 134.910156 49.046875 135.777344 48.175781 135.777344 47.113281 L 135.777344 37.433594 L 139.945312 37.433594 L 139.945312 49.472656 C 139.945312 50.230469 139.570312 50.902344 138.992188 51.308594 L 139.945312 51.308594 C 139.945312 51.308594 142.300781 54.105469 147.003906 59.695312 C 146.363281 62.253906 145.078125 63.761719 143.15625 64.214844 C 143.15625 64.214844 120.699219 64.214844 75.785156 64.214844 C 73.566406 64.15625 72.070312 62.648438 71.292969 59.695312 C 71.292969 59.695312 73.644531 56.902344 78.351562 51.308594 L 78.984375 51.308594 C 78.410156 50.902344 78.03125 50.230469 78.03125 49.472656 L 78.03125 14.417969 C 78.03125 13.1875 79.03125 12.183594 80.253906 12.183594 Z M 103.695312 60.988281 L 114.601562 60.988281 C 115.132812 60.988281 115.566406 61.421875 115.566406 61.957031 C 115.566406 62.488281 115.132812 62.925781 114.601562 62.925781 L 103.695312 62.925781 C 103.167969 62.925781 102.734375 62.488281 102.734375 61.957031 C 102.734375 61.421875 103.164062 60.988281 103.695312 60.988281 Z M 97.601562 60.019531 C 98.882812 58.082031 99.523438 57.117188 99.523438 57.117188 C 112.355469 57.117188 118.773438 57.117188 118.773438 57.117188 C 120.058594 59.050781 120.699219 60.019531 120.699219 60.019531 C 105.300781 60.019531 97.601562 60.019531 97.601562 60.019531 Z M 97.601562 60.019531 " fill-opacity="1" fill-rule="evenodd"/></g><path fill="#12229d" d="M 104.015625 32.59375 L 110.433594 32.59375 L 110.433594 39.046875 L 104.015625 39.046875 Z M 104.015625 32.59375 " fill-opacity="1" fill-rule="evenodd"/><path fill="#233dff" d="M 113.960938 32.269531 L 119.65625 32.269531 L 119.65625 38 L 113.960938 38 Z M 113.960938 32.269531 " fill-opacity="1" fill-rule="evenodd"/><path fill="#5cb6f9" d="M 134.152344 22.265625 L 146.34375 22.265625 L 146.34375 34.527344 L 134.152344 34.527344 Z M 134.152344 22.265625 " fill-opacity="1" fill-rule="evenodd"/><path fill="#f4f6fc" d="M 124.585938 30.050781 L 131.605469 30.050781 L 131.605469 37.109375 L 124.585938 37.109375 Z M 124.585938 30.050781 " fill-opacity="1" fill-rule="evenodd"/><path fill="#12229d" d="M 118.171875 22.304688 L 125.191406 22.304688 L 125.191406 29.363281 L 118.171875 29.363281 Z M 118.171875 22.304688 " fill-opacity="1" fill-rule="evenodd"/><path fill="#5cb6f9" d="M 115.585938 13.25 L 122.605469 13.25 L 122.605469 20.308594 L 115.585938 20.308594 Z M 115.585938 13.25 " fill-opacity="1" fill-rule="evenodd"/><path fill="#f4f6fc" d="M 108.226562 25.210938 L 113.921875 25.210938 L 113.921875 30.9375 L 108.226562 30.9375 Z M 108.226562 25.210938 " fill-opacity="1" fill-rule="evenodd"/><path fill="#233dff" d="M 126.472656 10.324219 L 136.417969 10.324219 L 136.417969 20.328125 L 126.472656 20.328125 Z M 126.472656 10.324219 " fill-opacity="1" fill-rule="evenodd"/><path fill="#12229d" d="M 128.417969 0.988281 L 135.4375 0.988281 L 135.4375 8.046875 L 128.417969 8.046875 Z M 128.417969 0.988281 " fill-opacity="1" fill-rule="evenodd"/><g clip-path="url(#bb497bd53b)"><path fill="#f4f6fc" d="M 138.664062 0 L 153.421875 0 L 153.421875 14.84375 L 138.664062 14.84375 Z M 138.664062 0 " fill-opacity="1" fill-rule="evenodd"/></g><g fill="#f4f6fc" fill-opacity="1"><g transform="translate(66.543348, 74.451349)"><g><path d="M 2.820312 0 L 4.371094 0 L 4.371094 -7.230469 L 7.0625 -7.230469 L 7.0625 -8.613281 L 0.121094 -8.613281 L 0.121094 -7.230469 L 2.820312 -7.230469 Z M 2.820312 0 "/></g></g></g><g fill="#f4f6fc" fill-opacity="1"><g transform="translate(73.732923, 74.451349)"><g><path d="M 0.894531 0 L 2.40625 0 L 2.40625 -3.085938 C 2.40625 -4.097656 2.859375 -4.871094 3.808594 -4.871094 C 4.707031 -4.871094 4.90625 -4.21875 4.90625 -3.46875 L 4.90625 0 L 6.417969 0 L 6.417969 -3.65625 C 6.417969 -4.929688 5.765625 -6.21875 4.167969 -6.21875 C 3.570312 -6.21875 2.894531 -5.980469 2.40625 -5.382812 L 2.40625 -8.613281 L 0.894531 -8.613281 Z M 0.894531 0 "/></g></g></g><g fill="#f4f6fc" fill-opacity="1"><g transform="translate(80.855476, 74.451349)"><g><path d="M 1.226562 2.621094 L 2.847656 2.621094 L 6.328125 -6.089844 L 4.691406 -6.089844 L 3.132812 -1.859375 L 1.597656 -6.089844 L -0.0351562 -6.089844 L 2.347656 -0.164062 Z M 1.226562 2.621094 "/></g></g></g><g fill="#f4f6fc" fill-opacity="1"><g transform="translate(87.143308, 74.451349)"><g><path d="M 0.882812 0 L 2.359375 0 L 2.359375 -3.332031 C 2.359375 -4.394531 2.894531 -4.84375 3.730469 -4.84375 C 4.492188 -4.84375 4.894531 -4.265625 4.894531 -3.46875 L 4.894531 0 L 6.363281 0 L 6.363281 -3.65625 C 6.363281 -4.929688 5.753906 -6.21875 4.15625 -6.21875 C 3.558594 -6.21875 2.847656 -5.980469 2.359375 -5.382812 L 2.359375 -6.089844 L 0.882812 -6.089844 Z M 0.882812 0 "/></g></g></g><g fill="#f4f6fc" fill-opacity="1"><g transform="translate(94.217118, 74.451349)"><g><path d="M 0.894531 0 L 2.382812 0 L 2.382812 -1.785156 L 3.320312 -2.820312 L 5.109375 0 L 6.863281 0 L 4.332031 -3.730469 L 6.613281 -6.089844 L 4.679688 -6.089844 L 2.382812 -3.558594 L 2.382812 -8.613281 L 0.894531 -8.613281 Z M 0.894531 0 "/></g></g></g><g fill="#f4f6fc" fill-opacity="1"><g transform="translate(101.028936, 74.451349)"><g/></g></g><g fill="#f4f6fc" fill-opacity="1"><g transform="translate(104.026623, 74.451349)"><g><path d="M 4.207031 0.121094 C 6.515625 0.121094 7.503906 -1.25 7.503906 -3.417969 L 7.503906 -8.613281 L 5.953125 -8.613281 L 5.953125 -3.535156 C 5.953125 -2.144531 5.59375 -1.371094 4.207031 -1.371094 C 2.820312 -1.371094 2.457031 -2.144531 2.457031 -3.535156 L 2.457031 -8.613281 L 0.914062 -8.613281 L 0.914062 -3.359375 C 0.914062 -1.25 1.894531 0.121094 4.207031 0.121094 Z M 4.207031 0.121094 "/></g></g></g><g fill="#f4f6fc" fill-opacity="1"><g transform="translate(112.43477, 74.451349)"><g><path d="M 0.882812 0 L 2.359375 0 L 2.359375 -3.332031 C 2.359375 -4.394531 2.894531 -4.84375 3.730469 -4.84375 C 4.492188 -4.84375 4.894531 -4.265625 4.894531 -3.46875 L 4.894531 0 L 6.363281 0 L 6.363281 -3.65625 C 6.363281 -4.929688 5.753906 -6.21875 4.15625 -6.21875 C 3.558594 -6.21875 2.847656 -5.980469 2.359375 -5.382812 L 2.359375 -6.089844 L 0.882812 -6.089844 Z M 0.882812 0 "/></g></g></g><g fill="#f4f6fc" fill-opacity="1"><g transform="translate(119.50858, 74.451349)"><g><path d="M 2.121094 0.121094 C 2.472656 0.121094 2.917969 0.0625 3.230469 0 L 3.230469 -1.25 C 3.070312 -1.226562 2.90625 -1.214844 2.820312 -1.214844 C 2.523438 -1.214844 2.335938 -1.335938 2.335938 -1.621094 L 2.335938 -8.613281 L 0.847656 -8.613281 L 0.847656 -1.214844 C 0.847656 -0.140625 1.421875 0.121094 2.121094 0.121094 Z M 2.121094 0.121094 "/></g></g></g><g fill="#f4f6fc" fill-opacity="1"><g transform="translate(122.999789, 74.451349)"><g><path d="M 0.847656 -7.242188 L 2.394531 -7.242188 L 2.394531 -8.613281 L 0.847656 -8.613281 Z M 0.882812 0 L 2.359375 0 L 2.359375 -6.089844 L 0.882812 -6.089844 Z M 0.882812 0 "/></g></g></g><g fill="#f4f6fc" fill-opacity="1"><g transform="translate(126.241191, 74.451349)"><g><path d="M 0.882812 0 L 2.382812 0 L 2.382812 -3.347656 C 2.382812 -4.15625 2.859375 -4.832031 3.667969 -4.832031 C 4.429688 -4.832031 4.632812 -4.230469 4.632812 -3.492188 L 4.632812 0 L 6.144531 0 L 6.144531 -3.347656 C 6.144531 -4.15625 6.613281 -4.832031 7.417969 -4.832031 C 8.1875 -4.832031 8.398438 -4.21875 8.398438 -3.46875 L 8.398438 0 L 9.910156 0 L 9.910156 -3.65625 C 9.910156 -4.941406 9.222656 -6.21875 7.660156 -6.21875 C 6.875 -6.21875 6.121094 -5.894531 5.644531 -5.144531 C 5.242188 -5.871094 4.667969 -6.21875 3.929688 -6.21875 C 3.359375 -6.21875 2.785156 -6.003906 2.382812 -5.453125 L 2.382812 -6.089844 L 0.882812 -6.089844 Z M 0.882812 0 "/></g></g></g><g fill="#f4f6fc" fill-opacity="1"><g transform="translate(136.861046, 74.451349)"><g><path d="M 0.847656 -7.242188 L 2.394531 -7.242188 L 2.394531 -8.613281 L 0.847656 -8.613281 Z M 0.882812 0 L 2.359375 0 L 2.359375 -6.089844 L 0.882812 -6.089844 Z M 0.882812 0 "/></g></g></g><g fill="#f4f6fc" fill-opacity="1"><g transform="translate(140.102447, 74.451349)"><g><path d="M 3.046875 0.121094 C 3.46875 0.121094 3.917969 0.0234375 4.144531 -0.0625 L 4.144531 -1.40625 C 3.945312 -1.308594 3.609375 -1.1875 3.296875 -1.1875 C 2.90625 -1.1875 2.609375 -1.359375 2.609375 -1.945312 L 2.609375 -4.84375 L 4.144531 -4.84375 L 4.144531 -6.089844 L 2.609375 -6.089844 L 2.609375 -8.660156 L 1.15625 -7.601562 L 1.15625 -6.089844 L 0.152344 -6.089844 L 0.152344 -4.84375 L 1.132812 -4.84375 L 1.132812 -1.683594 C 1.132812 -0.574219 1.847656 0.121094 3.046875 0.121094 Z M 3.046875 0.121094 "/></g></g></g><g fill="#f4f6fc" fill-opacity="1"><g transform="translate(144.696464, 74.451349)"><g><path d="M 3.417969 0.121094 C 4.441406 0.121094 5.253906 -0.238281 5.917969 -0.976562 L 4.894531 -1.871094 C 4.46875 -1.394531 3.980469 -1.226562 3.429688 -1.226562 C 2.472656 -1.226562 2.035156 -1.761719 1.90625 -2.558594 L 6.089844 -2.558594 C 6.121094 -2.644531 6.144531 -2.894531 6.144531 -3.144531 C 6.144531 -4.503906 5.453125 -6.21875 3.320312 -6.21875 C 1.261719 -6.21875 0.335938 -4.609375 0.335938 -3.023438 C 0.335938 -1.382812 1.324219 0.121094 3.417969 0.121094 Z M 1.90625 -3.632812 C 2.046875 -4.394531 2.433594 -4.96875 3.308594 -4.96875 C 4.082031 -4.96875 4.582031 -4.503906 4.679688 -3.632812 Z M 1.90625 -3.632812 "/></g></g></g><g fill="#f4f6fc" fill-opacity="1"><g transform="translate(151.197545, 74.451349)"><g><path d="M 4.730469 -8.613281 L 4.730469 -5.480469 C 4.308594 -6.003906 3.632812 -6.21875 3 -6.21875 C 1.308594 -6.21875 0.382812 -4.730469 0.382812 -3.046875 C 0.382812 -1.347656 1.308594 0.121094 3.023438 0.121094 C 3.699219 0.121094 4.371094 -0.109375 4.789062 -0.683594 L 4.859375 0 L 6.242188 0 L 6.242188 -8.613281 Z M 3.382812 -1.226562 C 2.359375 -1.226562 1.894531 -2.023438 1.894531 -3.046875 C 1.894531 -4.058594 2.359375 -4.871094 3.382812 -4.871094 C 4.40625 -4.871094 4.859375 -4.070312 4.859375 -3.046875 C 4.859375 -2.011719 4.40625 -1.226562 3.382812 -1.226562 Z M 3.382812 -1.226562 "/></g></g></g><g fill="#f4f6fc" fill-opacity="1"><g transform="translate(79.599991, 84.246319)"><g><path d="M 2.574219 0.0664062 C 3.519531 0.0664062 4.277344 -0.414062 4.65625 -1.300781 L 3.863281 -1.625 C 3.609375 -0.984375 3.1875 -0.742188 2.574219 -0.742188 C 1.558594 -0.742188 1.125 -1.464844 1.125 -2.410156 C 1.125 -3.292969 1.558594 -4.015625 2.5625 -4.015625 C 3.179688 -4.015625 3.671875 -3.773438 3.851562 -3.148438 L 4.648438 -3.464844 C 4.265625 -4.351562 3.511719 -4.828125 2.570312 -4.828125 C 1.003906 -4.828125 0.277344 -3.679688 0.277344 -2.378906 C 0.277344 -1.074219 1.011719 0.0664062 2.574219 0.0664062 Z M 2.574219 0.0664062 "/></g></g></g><g fill="#f4f6fc" fill-opacity="1"><g transform="translate(84.96699, 84.246319)"><g><path d="M 2.570312 0.0664062 C 4.140625 0.0664062 4.863281 -1.082031 4.863281 -2.378906 C 4.863281 -3.671875 4.140625 -4.824219 2.570312 -4.824219 C 1 -4.824219 0.277344 -3.671875 0.277344 -2.378906 C 0.277344 -1.082031 1 0.0664062 2.570312 0.0664062 Z M 2.570312 -0.6875 C 1.550781 -0.6875 1.175781 -1.480469 1.175781 -2.378906 C 1.175781 -3.273438 1.550781 -4.0625 2.570312 -4.0625 C 3.589844 -4.0625 3.960938 -3.273438 3.960938 -2.378906 C 3.960938 -1.480469 3.589844 -0.6875 2.570312 -0.6875 Z M 2.570312 -0.6875 "/></g></g></g><g fill="#f4f6fc" fill-opacity="1"><g transform="translate(90.656847, 84.246319)"><g><path d="M 0.613281 0 L 1.433594 0 L 1.433594 -3.554688 L 2.609375 -0.414062 L 3.4375 -0.414062 L 4.613281 -3.554688 L 4.613281 0 L 5.433594 0 L 5.433594 -4.753906 L 4.285156 -4.753906 L 3.023438 -1.371094 L 1.761719 -4.753906 L 0.613281 -4.753906 Z M 0.613281 0 "/></g></g></g><g fill="#f4f6fc" fill-opacity="1"><g transform="translate(97.254748, 84.246319)"><g><path d="M 0.613281 0 L 1.433594 0 L 1.433594 -3.554688 L 2.609375 -0.414062 L 3.4375 -0.414062 L 4.613281 -3.554688 L 4.613281 0 L 5.433594 0 L 5.433594 -4.753906 L 4.285156 -4.753906 L 3.023438 -1.371094 L 1.761719 -4.753906 L 0.613281 -4.753906 Z M 0.613281 0 "/></g></g></g><g fill="#f4f6fc" fill-opacity="1"><g transform="translate(103.852647, 84.246319)"><g><path d="M 2.320312 0.0664062 C 3.59375 0.0664062 4.140625 -0.6875 4.140625 -1.886719 L 4.140625 -4.753906 L 3.285156 -4.753906 L 3.285156 -1.949219 C 3.285156 -1.183594 3.085938 -0.757812 2.320312 -0.757812 C 1.558594 -0.757812 1.355469 -1.183594 1.355469 -1.949219 L 1.355469 -4.753906 L 0.503906 -4.753906 L 0.503906 -1.851562 C 0.503906 -0.6875 1.046875 0.0664062 2.320312 0.0664062 Z M 2.320312 0.0664062 "/></g></g></g><g fill="#f4f6fc" fill-opacity="1"><g transform="translate(109.044763, 84.246319)"><g><path d="M 0.613281 0 L 1.433594 0 L 1.433594 -3.332031 L 3.421875 0 L 4.277344 0 L 4.277344 -4.753906 L 3.457031 -4.753906 L 3.457031 -1.425781 L 1.460938 -4.753906 L 0.613281 -4.753906 Z M 0.613281 0 "/></g></g></g><g fill="#f4f6fc" fill-opacity="1"><g transform="translate(114.485749, 84.246319)"><g><path d="M 0.613281 0 L 1.464844 0 L 1.464844 -4.753906 L 0.613281 -4.753906 Z M 0.613281 0 "/></g></g></g><g fill="#f4f6fc" fill-opacity="1"><g transform="translate(117.115171, 84.246319)"><g><path d="M 2.574219 0.0664062 C 3.519531 0.0664062 4.277344 -0.414062 4.65625 -1.300781 L 3.863281 -1.625 C 3.609375 -0.984375 3.1875 -0.742188 2.574219 -0.742188 C 1.558594 -0.742188 1.125 -1.464844 1.125 -2.410156 C 1.125 -3.292969 1.558594 -4.015625 2.5625 -4.015625 C 3.179688 -4.015625 3.671875 -3.773438 3.851562 -3.148438 L 4.648438 -3.464844 C 4.265625 -4.351562 3.511719 -4.828125 2.570312 -4.828125 C 1.003906 -4.828125 0.277344 -3.679688 0.277344 -2.378906 C 0.277344 -1.074219 1.011719 0.0664062 2.574219 0.0664062 Z M 2.574219 0.0664062 "/></g></g></g><g fill="#f4f6fc" fill-opacity="1"><g transform="translate(122.482169, 84.246319)"><g><path d="M 0.0390625 0 L 0.972656 0 L 1.34375 -1.03125 L 3.1875 -1.03125 L 3.554688 0 L 4.476562 0 L 2.582031 -4.753906 L 1.945312 -4.753906 Z M 1.632812 -1.761719 L 2.265625 -3.496094 L 2.898438 -1.761719 Z M 1.632812 -1.761719 "/></g></g></g><g fill="#f4f6fc" fill-opacity="1"><g transform="translate(127.549849, 84.246319)"><g><path d="M 1.558594 0 L 2.410156 0 L 2.410156 -3.988281 L 3.898438 -3.988281 L 3.898438 -4.753906 L 0.0664062 -4.753906 L 0.0664062 -3.988281 L 1.558594 -3.988281 Z M 1.558594 0 "/></g></g></g><g fill="#f4f6fc" fill-opacity="1"><g transform="translate(132.069341, 84.246319)"><g><path d="M 0.613281 0 L 1.464844 0 L 1.464844 -4.753906 L 0.613281 -4.753906 Z M 0.613281 0 "/></g></g></g><g fill="#f4f6fc" fill-opacity="1"><g transform="translate(134.698761, 84.246319)"><g><path d="M 2.570312 0.0664062 C 4.140625 0.0664062 4.863281 -1.082031 4.863281 -2.378906 C 4.863281 -3.671875 4.140625 -4.824219 2.570312 -4.824219 C 1 -4.824219 0.277344 -3.671875 0.277344 -2.378906 C 0.277344 -1.082031 1 0.0664062 2.570312 0.0664062 Z M 2.570312 -0.6875 C 1.550781 -0.6875 1.175781 -1.480469 1.175781 -2.378906 C 1.175781 -3.273438 1.550781 -4.0625 2.570312 -4.0625 C 3.589844 -4.0625 3.960938 -3.273438 3.960938 -2.378906 C 3.960938 -1.480469 3.589844 -0.6875 2.570312 -0.6875 Z M 2.570312 -0.6875 "/></g></g></g><g fill="#f4f6fc" fill-opacity="1"><g transform="translate(140.388618, 84.246319)"><g><path d="M 0.613281 0 L 1.433594 0 L 1.433594 -3.332031 L 3.421875 0 L 4.277344 0 L 4.277344 -4.753906 L 3.457031 -4.753906 L 3.457031 -1.425781 L 1.460938 -4.753906 L 0.613281 -4.753906 Z M 0.613281 0 "/></g></g></g></svg>